<?xml version="1.0" encoding="UTF-8" standalone="no"?>
<!DOCTYPE svg PUBLIC "-//W3C//DTD SVG 1.1//EN" "http://www.w3.org/Graphics/SVG/1.1/DTD/svg11.dtd" >
<svg xmlns="http://www.w3.org/2000/svg">
<metadata>
This is a SVG font generated by e-font.
</metadata>
<defs>
<font id="HPESimpleWebBold" horiz-adv-x="526" >
<font-face units-per-em="1000" ascent="950" descent="-250" />
<missing-glyph horiz-adv-x="526" />
<glyph unicode="&#x20;" horiz-adv-x="528" />
<glyph unicode="&#x21;" horiz-adv-x="528" d="M315 682C315 699 302 712 285 712L243 712C226 712 213 699 213 682L213 244C213 227 226 214 243 214L285 214C302 214 315 227 315 244ZM345 132C345 149 331 162 314 162L213 162C197 162 183 149 183 132L183 30C183 13 196 0 213 0L315 0C332 0 345 13 345 30Z"/>
<glyph unicode="&#x22;" horiz-adv-x="528" d="M233 682C233 699 220 712 203 712L102 712C85 712 70 699 70 682L70 580C70 563 85 550 102 550L131 550L131 540C131 523 118 509 101 509C84 509 70 496 70 479L70 438C70 421 84 407 101 407C174 407 233 467 233 540ZM458 682C458 699 445 712 428 712L327 712C310 712 295 699 295 682L295 580C295 563 310 550 327 550L356 550L356 540C356 523 343 509 326 509C309 509 295 496 295 479L295 438C295 421 309 407 326 407C399 407 458 467 458 540Z"/>
<glyph unicode="&#x23;" horiz-adv-x="528" d="M518 480C518 496 505 510 488 510L440 510L469 677C472 696 459 712 439 712L397 712C384 712 371 702 368 687L336 510L248 510L277 677C280 696 267 712 247 712L205 712C192 712 179 702 176 687L144 510L76 510C60 510 45 496 45 480L45 439C45 422 60 408 76 408L126 408L108 306L40 306C23 306 10 293 10 276L10 234C10 218 23 204 40 204L89 204L60 36C57 16 71 0 90 0L132 0C146 0 159 12 161 25L193 204L282 204L252 36C249 16 263 0 282 0L324 0C338 0 351 12 353 25L385 204L452 204C468 204 483 218 483 234L483 276C483 293 468 306 452 306L403 306L421 408L488 408C505 408 518 422 518 439ZM318 408L300 306L211 306L229 408Z"/>
<glyph unicode="&#x24;" horiz-adv-x="528" d="M284 -82C301 -82 315 -69 315 -52L315 -8C396 7 458 77 458 162L458 194C458 410 183 391 183 519L183 550C183 589 214 621 253 621L275 621C314 621 345 589 345 550L345 530C345 513 359 499 376 499L417 499C433 499 447 513 447 530L447 550C447 632 391 700 315 718L315 764C315 781 302 794 285 794L243 794C226 794 213 781 213 764L213 718C137 700 81 632 81 550L81 519C81 309 356 333 356 194L356 162C356 123 324 91 284 91L244 91C204 91 172 123 172 162L172 184C172 201 158 214 142 214L100 214C83 214 70 201 70 184L70 162C70 77 132 7 213 -8L213 -52C213 -69 227 -82 244 -82Z"/>
<glyph unicode="&#x25;" horiz-adv-x="528" d="M393 515C389 519 384 521 379 521C374 521 368 519 364 515L106 256C102 252 100 247 100 242C100 237 102 232 106 228L134 199C138 195 144 193 149 193C154 193 159 195 163 199L421 457C425 461 427 466 427 471C427 476 425 482 421 486ZM259 636C259 684 220 723 173 723L151 723C104 723 65 684 65 636L65 515C65 467 104 428 151 428L173 428C220 428 259 467 259 515ZM136 636C136 645 142 652 151 652L173 652C182 652 188 645 188 636L188 515C188 506 182 499 173 499L151 499C142 499 136 506 136 515ZM462 197C462 245 423 284 376 284L354 284C307 284 268 245 268 197L268 76C268 28 307 -11 354 -11L376 -11C423 -11 462 28 462 76ZM339 197C339 206 345 213 354 213L376 213C385 213 391 206 391 197L391 76C391 67 385 60 376 60L354 60C345 60 339 67 339 76Z"/>
<glyph unicode="&#x26;" horiz-adv-x="528" d="M445 100C453 120 458 141 458 163L458 316C458 332 445 346 428 346L386 346C369 346 356 332 356 316L356 243L192 505C186 515 182 526 182 540L182 550C182 589 214 621 253 621L275 621C314 621 346 589 346 550L346 457C346 440 359 427 376 427L418 427C435 427 448 440 448 457L448 550C448 645 370 723 275 723L253 723C158 723 81 645 81 550L81 540C81 489 105 450 131 409C91 379 70 336 70 275L70 163C70 67 148 -11 244 -11L284 -11C319 -11 351 0 378 17L393 -6C398 -15 408 -20 418 -20C424 -20 429 -19 435 -15L469 6C479 12 484 21 484 32C484 37 482 43 479 48ZM324 104C312 96 299 91 284 91L244 91C204 91 172 124 172 163L172 275C172 298 178 312 185 323Z"/>
<glyph unicode="&#x27;" horiz-adv-x="528" d="M183 438C183 421 197 407 214 407C287 407 346 467 346 540L346 682C346 699 333 712 316 712L215 712C198 712 183 699 183 682L183 580C183 563 198 550 215 550L244 550L244 540C244 523 231 509 214 509C197 509 183 496 183 479Z"/>
<glyph unicode="&#x28;" horiz-adv-x="528" d="M346 -204C362 -204 376 -191 376 -174L376 -131C376 -114 362 -102 346 -102L325 -102C286 -102 254 -70 254 -31L254 540C254 579 286 610 325 610L346 610C363 610 376 623 376 640L376 682C376 699 363 712 346 712L325 712C229 712 152 636 152 540L152 -31C152 -126 229 -204 325 -204Z"/>
<glyph unicode="&#x29;" horiz-adv-x="528" d="M203 -204C299 -204 376 -126 376 -31L376 540C376 636 299 712 203 712L182 712C165 712 152 699 152 682L152 640C152 623 165 610 182 610L203 610C242 610 274 579 274 540L274 -31C274 -70 242 -102 203 -102L182 -102C166 -102 152 -114 152 -131L152 -174C152 -191 166 -204 182 -204Z"/>
<glyph unicode="&#x2a;" horiz-adv-x="528" d="M378 362C388 368 394 379 394 390C394 395 393 399 390 404L344 474L427 469C444 468 458 482 458 499L458 540C458 557 444 571 427 570L344 565L390 635C393 640 394 644 394 649C394 660 388 671 378 677L343 697C339 699 334 701 327 701C316 701 306 696 301 685L264 611L227 685C222 696 212 701 201 701C194 701 189 699 185 697L150 677C140 671 134 660 134 649C134 644 135 640 138 635L184 565L101 570C84 571 70 557 70 540L70 499C70 482 84 468 101 469L184 474L138 404C135 399 134 395 134 390C134 379 140 368 150 362L185 342C189 340 194 338 201 338C212 338 222 343 227 354L264 428L301 354C306 343 316 338 327 338C334 338 339 340 343 342Z"/>
<glyph unicode="&#x2b;" horiz-adv-x="528" d="M285 102C302 102 315 115 315 132L315 214L397 214C414 214 427 227 427 244L427 286C427 302 414 316 397 316L315 316L315 397C315 414 302 427 285 427L243 427C226 427 213 414 213 397L213 316L131 316C114 316 101 302 101 286L101 244C101 227 114 214 131 214L213 214L213 132C213 115 226 102 243 102Z"/>
<glyph unicode="&#x2c;" horiz-adv-x="528" d="M182 -112C182 -129 196 -143 213 -143C286 -143 345 -83 345 -10L345 132C345 149 332 162 315 162L214 162C197 162 182 149 182 132L182 30C182 13 197 0 214 0L243 0L243 -10C243 -27 230 -41 213 -41C196 -41 182 -54 182 -71Z"/>
<glyph unicode="&#x2d;" horiz-adv-x="528" d="M376 214C393 214 406 227 406 244L406 286C406 302 393 316 376 316L152 316C135 316 122 302 122 286L122 244C122 227 135 214 152 214Z"/>
<glyph unicode="&#x2e;" horiz-adv-x="528" d="M314 0C330 0 345 13 345 31L345 131C345 148 330 162 314 162L214 162C198 162 183 148 183 131L183 31C183 13 198 0 214 0Z"/>
<glyph unicode="&#x2f;" horiz-adv-x="528" d="M446 671C455 692 442 712 419 712L374 712C363 712 351 704 347 694L82 42C80 37 79 33 79 29C79 13 91 0 109 0L154 0C165 0 177 9 181 19Z"/>
<glyph unicode="&#x30;" horiz-adv-x="528" d="M81 162C81 67 158 -11 253 -11L275 -11C370 -11 447 67 447 162L447 550C447 645 370 723 275 723L253 723C158 723 81 645 81 550ZM183 550C183 589 214 621 253 621L275 621C314 621 345 589 345 550L345 162C345 123 314 91 275 91L253 91C214 91 183 123 183 162Z"/>
<glyph unicode="&#x31;" horiz-adv-x="528" d="M448 0C465 0 478 13 478 30L478 72C478 89 465 102 448 102L335 102L335 682C335 699 322 712 305 712L254 712C246 712 236 708 231 702L103 552C98 546 96 541 96 534C96 526 100 517 107 510L137 483C143 478 150 475 157 475C166 475 174 479 180 486L233 548L233 102L102 102C85 102 70 89 70 72L70 30C70 13 85 0 102 0Z"/>
<glyph unicode="&#x32;" horiz-adv-x="528" d="M428 0C445 0 458 13 458 30L458 72C458 89 445 102 428 102L173 102C178 189 205 220 294 285C410 370 447 454 447 519L447 550C447 645 370 723 275 723L253 723C158 723 81 645 81 550L81 519C81 502 94 489 111 489L153 489C170 489 183 502 183 519L183 550C183 589 214 621 253 621L275 621C314 621 345 589 345 550L345 519C345 503 342 446 234 368C108 276 70 209 70 72L70 30C70 13 85 0 102 0Z"/>
<glyph unicode="&#x33;" horiz-adv-x="528" d="M284 -11C380 -11 458 67 458 162L458 296C458 378 398 448 320 465L441 615C445 620 447 628 447 635L447 682C447 699 433 712 417 712L131 712C114 712 101 699 101 683L101 640C101 623 114 610 131 610L309 610C265 557 189 465 189 465C185 460 182 451 182 445L182 397C182 380 195 367 212 367L284 367C324 367 356 335 356 296L356 162C356 123 324 91 284 91L244 91C204 91 172 123 172 162L172 194C172 211 159 224 142 224L100 224C83 224 70 211 70 194L70 162C70 67 148 -11 244 -11Z"/>
<glyph unicode="&#x34;" horiz-adv-x="528" d="M376 0C393 0 406 13 406 30L406 122L438 122C455 122 468 135 468 152L468 194C468 211 455 224 438 224L406 224L406 357C406 374 393 387 376 387L334 387C318 387 304 374 304 357L304 224L173 224L396 668C399 674 400 678 400 683C400 699 387 712 369 712L323 712C312 712 300 705 296 696L63 232C62 229 60 223 60 219L60 152C60 135 73 122 90 122L304 122L304 30C304 13 318 0 334 0Z"/>
<glyph unicode="&#x35;" horiz-adv-x="528" d="M275 -11C370 -11 447 67 447 162L447 316C447 411 370 489 275 489L253 489C232 489 212 485 194 478L201 610L407 610C424 610 437 623 437 640L437 682C437 699 424 712 407 712L132 712C117 712 103 700 102 684L84 338C83 320 97 305 114 305L153 305C197 305 180 387 253 387L275 387C314 387 345 355 345 316L345 162C345 123 314 91 275 91L253 91C214 91 183 123 183 162L183 194C183 211 170 224 153 224L111 224C94 224 81 211 81 194L81 162C81 67 158 -11 253 -11Z"/>
<glyph unicode="&#x36;" horiz-adv-x="528" d="M447 316C447 411 370 489 275 489L253 489C228 489 204 482 182 472L182 550C182 589 214 621 253 621L275 621C314 621 345 589 345 550C345 533 358 519 375 519L417 519C434 519 447 533 447 550C447 645 370 723 275 723L253 723C158 723 80 645 80 550L80 162C80 67 158 -11 253 -11L275 -11C370 -11 447 67 447 162ZM346 162C346 123 314 91 275 91L253 91C214 91 182 123 182 162L182 316C182 355 214 387 253 387L275 387C314 387 346 355 346 316Z"/>
<glyph unicode="&#x37;" horiz-adv-x="528" d="M205 0C220 0 234 12 236 27C257 187 309 286 358 367C409 450 468 528 468 632L468 682C468 699 454 712 437 712L111 712C95 712 81 699 81 682L81 640C81 623 94 610 111 610L365 610C356 541 306 477 272 420C218 331 157 217 134 35C132 16 146 0 164 0Z"/>
<glyph unicode="&#x38;" horiz-adv-x="528" d="M458 234C458 284 436 330 401 362C430 393 447 433 447 479L447 550C447 645 370 723 275 723L253 723C158 723 81 645 81 550L81 479C81 433 98 393 127 362C92 330 70 284 70 234L70 163C70 67 148 -11 244 -11L284 -11C380 -11 458 67 458 163ZM345 479C345 440 314 407 275 407L253 407C214 407 183 440 183 479L183 550C183 589 214 621 253 621L275 621C314 621 345 589 345 550ZM356 163C356 124 324 91 284 91L244 91C204 91 172 124 172 163L172 234C172 274 204 305 244 305L284 305C324 305 356 274 356 234Z"/>
<glyph unicode="&#x39;" horiz-adv-x="528" d="M447 550C447 645 370 723 275 723L253 723C158 723 81 645 81 550L81 397C81 301 158 223 253 223L275 223C300 223 324 228 346 238L346 162C346 123 314 91 275 91L264 91C225 91 193 123 193 162C193 179 180 194 163 194L121 194C104 194 91 179 91 162C91 67 168 -11 264 -11L275 -11C370 -11 447 67 447 162ZM345 397C345 358 314 325 275 325L253 325C214 325 183 358 183 397L183 550C183 589 214 621 253 621L275 621C314 621 345 589 345 550Z"/>
<glyph unicode="&#x3a;" horiz-adv-x="528" d="M345 131C345 148 330 162 314 162L214 162C198 162 183 148 183 131L183 31C183 13 198 0 214 0L314 0C330 0 345 13 345 31ZM345 459C345 476 330 490 314 490L214 490C198 490 183 476 183 459L183 359C183 341 198 328 214 328L314 328C330 328 345 341 345 359Z"/>
<glyph unicode="&#x3b;" horiz-adv-x="528" d="M345 132C345 149 332 162 315 162L215 162C198 162 183 149 183 132L183 30C183 13 198 0 215 0L243 0L243 -10C243 -27 231 -41 214 -41C197 -41 183 -54 183 -71L183 -112C183 -129 197 -143 214 -143C287 -143 345 -83 345 -10ZM345 459C345 476 330 490 314 490L214 490C198 490 183 476 183 459L183 359C183 341 198 328 214 328L314 328C330 328 345 341 345 359Z"/>
<glyph unicode="&#x3c;" horiz-adv-x="528" d="M394 40C413 40 426 54 426 69C426 77 422 86 414 93L229 254L414 415C422 422 426 431 426 439C426 454 413 468 394 468L331 468C323 468 316 465 311 461L122 297C116 292 111 282 111 273L111 235C111 226 116 216 122 211L311 47C316 43 323 40 331 40Z"/>
<glyph unicode="&#x3d;" horiz-adv-x="528" d="M427 368C427 385 414 398 397 398L131 398C114 398 101 385 101 368L101 326C101 309 114 296 131 296L397 296C414 296 427 309 427 326ZM427 204C427 221 414 234 397 234L131 234C114 234 101 221 101 204L101 162C101 145 114 132 131 132L397 132C414 132 427 145 427 162Z"/>
<glyph unicode="&#x3e;" horiz-adv-x="528" d="M405 211C411 216 416 226 416 235L416 273C416 282 411 292 405 297L216 461C211 465 204 468 196 468L133 468C114 468 101 454 101 439C101 431 105 422 113 415L298 254L113 93C105 86 101 77 101 69C101 54 114 40 133 40L196 40C204 40 211 43 216 47Z"/>
<glyph unicode="&#x3f;" horiz-adv-x="528" d="M447 550C447 645 370 723 275 723L253 723C158 723 81 645 81 550L81 519C81 503 94 490 111 490L153 490C170 490 183 503 183 519L183 550C183 589 214 621 253 621L275 621C314 621 345 589 345 550L345 530C345 505 343 468 275 418C197 359 192 300 192 243C192 226 205 213 222 213L265 213C282 213 295 226 295 243C295 287 295 306 335 336C429 407 447 472 447 530ZM325 132C325 149 311 162 294 162L193 162C177 162 163 149 163 132L163 30C163 13 176 0 193 0L295 0C312 0 325 13 325 30Z"/>
<glyph unicode="&#x40;" horiz-adv-x="528" d="M488 550C488 645 411 723 315 723L244 723C148 723 70 645 70 550C70 533 84 520 101 520L142 520C158 520 173 533 173 550C173 589 204 621 244 621L315 621C354 621 386 589 386 550L386 121C386 105 372 90 355 90C339 90 325 105 325 121L325 449C325 466 311 479 295 479L253 479C250 479 246 478 242 476C224 484 204 489 182 489C104 489 40 425 40 347L40 131C40 53 104 -11 182 -11C216 -11 247 1 271 20C294 1 324 -11 355 -11C429 -11 488 48 488 121ZM223 131C223 108 205 90 182 90C160 90 142 108 142 131L142 347C142 369 160 387 182 387C205 387 223 369 223 347Z"/>
<glyph unicode="&#x41;" horiz-adv-x="528" d="M468 278C468 279 468 281 467 284L360 690C356 705 344 712 330 712L198 712C184 712 172 705 168 690L61 284C60 281 60 279 60 278L60 30C60 13 73 0 90 0L133 0C150 0 162 13 162 30L162 223L366 223L366 30C366 13 379 0 396 0L438 0C455 0 468 13 468 30ZM350 325L178 325L252 610L276 610Z"/>
<glyph unicode="&#x42;" horiz-adv-x="528" d="M466 234C466 284 444 330 410 362C438 393 455 433 455 479L455 540C455 636 378 712 282 712L119 712C102 712 89 699 89 682L89 30C89 13 102 0 119 0L293 0C388 0 466 78 466 173ZM353 479C353 440 322 407 282 407L191 407L191 610L282 610C322 610 353 579 353 540ZM364 173C364 133 332 102 293 102L191 102L191 305L293 305C332 305 364 274 364 234Z"/>
<glyph unicode="&#x43;" horiz-adv-x="528" d="M284 -11C380 -11 458 66 458 162L458 194C458 211 445 224 428 224L386 224C369 224 356 211 356 194L356 162C356 123 324 91 284 91L253 91C214 91 182 123 182 162L182 550C182 589 214 621 253 621L284 621C324 621 356 589 356 550L356 529C356 512 369 499 386 499L428 499C445 499 458 512 458 529L458 550C458 645 380 723 284 723L253 723C158 723 80 645 80 550L80 162C80 66 158 -11 253 -11Z"/>
<glyph unicode="&#x44;" horiz-adv-x="528" d="M455 540C455 636 378 712 282 712L119 712C102 712 89 699 89 682L89 30C89 13 102 0 119 0L282 0C378 0 455 78 455 173ZM353 173C353 133 322 102 282 102L191 102L191 610L282 610C322 610 353 579 353 540Z"/>
<glyph unicode="&#x45;" horiz-adv-x="528" d="M428 0C445 0 458 13 458 30L458 72C458 89 445 102 428 102L193 102L193 305L406 305C423 305 437 318 437 335L437 377C437 394 423 407 406 407L193 407L193 610L427 610C444 610 458 624 458 640L458 682C458 699 444 712 427 712L121 712C104 712 91 699 91 683L91 30C91 13 104 0 121 0Z"/>
<glyph unicode="&#x46;" horiz-adv-x="528" d="M173 0C190 0 203 13 203 30L203 305L417 305C433 305 447 320 447 336L447 376C447 394 433 407 417 407L203 407L203 610L438 610C455 610 468 623 468 640L468 682C468 699 455 712 438 712L131 712C114 712 101 699 101 682L101 30C101 13 114 0 131 0Z"/>
<glyph unicode="&#x47;" horiz-adv-x="528" d="M279 -11C374 -11 452 67 452 163L452 377C452 394 439 407 422 407L268 407C251 407 238 394 238 377L238 335C238 318 251 305 268 305L350 305L350 163C350 124 319 91 279 91L249 91C209 91 178 124 178 163L178 550C178 589 209 621 249 621L279 621C319 621 350 589 350 550L350 528C350 511 363 498 380 498L422 498C439 498 452 511 452 528L452 550C452 646 374 723 279 723L249 723C154 723 76 646 76 550L76 163C76 67 154 -11 249 -11Z"/>
<glyph unicode="&#x48;" horiz-adv-x="528" d="M417 0C434 0 447 13 447 30L447 682C447 699 434 712 417 712L375 712C358 712 345 699 345 682L345 407L183 407L183 682C183 699 170 712 153 712L111 712C94 712 81 699 81 682L81 30C81 13 94 0 111 0L153 0C170 0 183 13 183 30L183 305L345 305L345 30C345 13 358 0 375 0Z"/>
<glyph unicode="&#x49;" horiz-adv-x="528" d="M428 0C445 0 458 13 458 30L458 72C458 89 445 102 428 102L315 102L315 610L417 610C434 610 447 623 447 640L447 682C447 699 434 712 417 712L111 712C94 712 81 699 81 682L81 640C81 623 94 610 111 610L213 610L213 102L100 102C83 102 70 89 70 72L70 30C70 13 83 0 100 0Z"/>
<glyph unicode="&#x4a;" horiz-adv-x="528" d="M264 -11C360 -11 437 66 437 162L437 682C437 699 423 712 406 712L142 712C125 712 111 699 111 682L111 640C111 623 125 610 142 610L335 610L335 162C335 123 303 91 264 91L244 91C204 91 172 123 172 162L172 224C172 241 159 254 142 254L100 254C83 254 70 241 70 224L70 162C70 66 148 -11 244 -11Z"/>
<glyph unicode="&#x4b;" horiz-adv-x="528" d="M468 0C487 0 500 13 500 29C500 35 498 41 493 48L266 375L472 664C477 671 479 677 479 683C479 698 466 712 447 712L397 712C388 712 378 708 372 700L182 434L182 682C182 699 169 712 152 712L110 712C93 712 80 699 80 682L80 30C80 13 93 0 110 0L152 0C169 0 182 13 182 30L182 258L203 287L394 13C400 5 408 0 419 0Z"/>
<glyph unicode="&#x4c;" horiz-adv-x="528" d="M438 0C455 0 468 13 468 30L468 72C468 89 455 102 438 102L224 102L224 682C224 699 211 712 194 712L152 712C135 712 122 699 122 682L122 30C122 13 135 0 152 0Z"/>
<glyph unicode="&#x4d;" horiz-adv-x="528" d="M475 0C492 0 505 13 505 30L505 682C505 699 492 712 475 712L360 712C347 712 335 705 332 693L275 458C270 439 265 391 264 380C263 391 258 439 253 458L196 693C193 705 181 712 168 712L53 712C36 712 23 699 23 682L23 30C23 13 35 0 53 0L95 0C112 0 125 13 125 30L125 479C125 504 118 587 117 597L140 597C141 587 151 504 158 479L209 305C213 291 225 285 238 285L290 285C303 285 315 291 319 305L370 479C377 504 387 587 388 597L411 597C410 587 403 504 403 479L403 30C403 13 416 0 433 0Z"/>
<glyph unicode="&#x4e;" horiz-adv-x="528" d="M459 0C476 0 489 13 489 30L489 682C489 699 476 712 459 712L417 712C400 712 387 699 387 682L387 234C387 208 395 124 396 114L372 114C371 124 357 208 349 234L214 693C210 707 197 712 185 712L70 712C53 712 39 699 39 682L39 30C39 13 52 0 69 0L111 0C128 0 141 13 141 30L141 479C141 504 133 588 132 598L156 598C157 588 171 504 179 479L314 20C318 6 331 0 343 0Z"/>
<glyph unicode="&#x4f;" horiz-adv-x="528" d="M76 162C76 67 154 -11 249 -11L279 -11C374 -11 452 67 452 162L452 550C452 646 374 723 279 723L249 723C154 723 76 646 76 550ZM178 550C178 589 209 621 249 621L279 621C319 621 350 589 350 550L350 162C350 123 319 91 279 91L249 91C209 91 178 123 178 162Z"/>
<glyph unicode="&#x50;" horiz-adv-x="528" d="M455 540C455 636 378 712 282 712L119 712C102 712 89 699 89 683L89 30C89 13 102 0 119 0L161 0C178 0 191 13 191 30L191 224L282 224C378 224 455 301 455 396ZM353 396C353 358 322 326 282 326L191 326L191 610L282 610C322 610 353 579 353 540Z"/>
<glyph unicode="&#x51;" horiz-adv-x="528" d="M464 8C470 14 473 22 473 30C473 38 470 45 464 51L432 82C445 107 452 132 452 162L452 550C452 645 374 723 279 723L249 723C154 723 76 645 76 550L76 162C76 66 154 -11 249 -11L279 -11C308 -11 336 -3 360 10L392 -21C399 -28 406 -30 414 -30C422 -30 429 -27 435 -21ZM350 162L300 215C294 221 286 224 278 224C270 224 262 221 256 215L228 186C221 179 219 172 219 164C219 156 222 149 228 143L278 91L249 91C209 91 178 123 178 162L178 550C178 589 209 621 249 621L279 621C319 621 350 589 350 550Z"/>
<glyph unicode="&#x52;" horiz-adv-x="528" d="M370 248C420 277 455 333 455 396L455 540C455 636 378 712 282 712L119 712C102 712 89 699 89 682L89 30C89 13 102 0 119 0L161 0C178 0 191 13 191 30L191 224L269 224L356 18C361 6 372 0 384 0L428 0C446 0 459 13 459 29C459 33 458 37 456 42ZM353 396C353 358 322 326 282 326L191 326L191 610L282 610C322 610 353 579 353 540Z"/>
<glyph unicode="&#x53;" horiz-adv-x="528" d="M284 -11C380 -11 457 67 457 162L457 194C457 410 182 391 182 519L182 550C182 589 214 621 253 621L275 621C314 621 346 589 346 550L346 529C346 512 359 499 376 499L418 499C435 499 448 512 448 529L448 550C448 645 370 723 275 723L253 723C158 723 80 645 80 550L80 519C80 309 355 333 355 194L355 162C355 123 324 91 284 91L244 91C204 91 173 123 173 162L173 184C173 201 160 214 143 214L101 214C84 214 71 201 71 184L71 162C71 67 148 -11 244 -11Z"/>
<glyph unicode="&#x54;" horiz-adv-x="528" d="M285 0C302 0 315 13 315 30L315 610L438 610C455 610 468 624 468 640L468 682C468 699 455 712 438 712L91 712C74 712 60 699 60 682L60 640C60 623 74 610 91 610L213 610L213 30C213 13 226 0 243 0Z"/>
<glyph unicode="&#x55;" horiz-adv-x="528" d="M275 -11C370 -11 447 67 447 162L447 682C447 699 434 712 417 712L376 712C359 712 346 699 346 682L346 162C346 123 314 91 275 91L253 91C214 91 182 123 182 162L182 682C182 699 169 712 152 712L111 712C94 712 81 699 81 682L81 162C81 67 158 -11 253 -11Z"/>
<glyph unicode="&#x56;" horiz-adv-x="528" d="M197 24C200 9 213 0 227 0L301 0C315 0 328 9 331 24L472 676C476 695 463 712 443 712L401 712C388 712 375 704 372 688L264 148L156 688C153 704 140 712 127 712L85 712C65 712 52 695 56 676Z"/>
<glyph unicode="&#x57;" horiz-adv-x="528" d="M514 682C515 699 500 712 483 712L443 712C426 712 413 702 412 683L396 214C395 192 395 123 395 113L371 113C371 123 367 192 364 214L340 404C338 418 328 427 315 427L213 427C200 427 190 418 188 404L164 214C161 192 157 123 157 113L133 113C133 123 133 192 132 214L116 683C115 702 102 712 85 712L45 712C28 712 13 699 14 682L25 372L58 27C60 10 73 0 88 0L200 0C213 0 226 10 227 23L247 234C250 264 252 315 252 325L276 325C276 315 278 264 281 234L301 23C302 10 315 0 328 0L440 0C455 0 468 10 470 27L503 372Z"/>
<glyph unicode="&#x58;" horiz-adv-x="528" d="M440 0C459 0 471 13 471 29C471 33 470 38 468 43L320 368L458 669C460 674 461 679 461 683C461 699 448 712 430 712L385 712C374 712 362 707 357 695L264 491L171 695C166 707 154 712 143 712L98 712C80 712 67 699 67 683C67 679 68 674 70 669L208 368L60 43C58 38 57 33 57 29C57 13 69 0 88 0L132 0C144 0 155 7 160 18L264 245L368 18C373 7 384 0 396 0Z"/>
<glyph unicode="&#x59;" horiz-adv-x="528" d="M456 671C464 692 450 712 427 712L384 712C372 712 359 706 355 693L264 425L173 693C169 706 156 712 144 712L101 712C78 712 64 692 72 671L213 311L213 30C213 13 226 0 243 0L285 0C302 0 315 13 315 30L315 311Z"/>
<glyph unicode="&#x5a;" horiz-adv-x="528" d="M438 0C455 0 468 13 468 30L468 72C468 89 455 102 438 102L202 102L439 610C446 625 447 639 447 641L447 682C447 699 434 712 417 712L121 712C104 712 91 699 91 682L91 640C91 623 105 610 122 610L326 610L89 100C83 87 81 83 81 66L81 30C81 13 94 0 111 0Z"/>
<glyph unicode="&#x5b;" horiz-adv-x="528" d="M346 -204C363 -204 376 -191 376 -174L376 -132C376 -115 363 -102 346 -102L254 -102L254 610L346 610C362 610 376 623 376 640L376 682C376 699 362 712 346 712L182 712C165 712 152 699 152 682L152 -174C152 -191 165 -204 182 -204Z"/>
<glyph unicode="&#x5c;" horiz-adv-x="528" d="M348 19C352 9 364 0 375 0L420 0C438 0 450 13 450 29C450 33 449 37 447 42L182 694C178 704 166 712 155 712L110 712C87 712 74 692 83 671Z"/>
<glyph unicode="&#x5d;" horiz-adv-x="528" d="M346 -204C363 -204 376 -191 376 -174L376 682C376 699 363 712 346 712L182 712C166 712 152 699 152 682L152 640C152 623 166 610 182 610L274 610L274 -102L182 -102C165 -102 152 -115 152 -132L152 -174C152 -191 165 -204 182 -204Z"/>
<glyph unicode="&#x5e;" horiz-adv-x="528" d="M431 305C453 305 468 325 459 347L327 693C323 704 311 712 299 712L229 712C217 712 205 704 201 693L69 347C60 325 75 305 97 305L141 305C153 305 164 313 169 325L264 572L359 325C364 313 375 305 387 305Z"/>
<glyph unicode="&#x5f;" horiz-adv-x="528" d="M417 0C434 0 447 13 447 30L447 72C447 89 434 102 417 102L111 102C95 102 81 89 81 72L81 30C81 13 94 0 111 0Z"/>
<glyph unicode="&#x60;" horiz-adv-x="528" d="M272 558C277 553 286 550 293 550L335 550C354 550 367 563 367 578C367 585 365 592 359 599L277 701C271 708 262 712 253 712L192 712C173 712 161 699 161 684C161 676 164 667 171 660Z"/>
<glyph unicode="&#x61;" horiz-adv-x="528" d="M488 72C488 89 474 102 458 102C452 102 447 107 447 112L447 356C447 458 364 519 275 519L264 519C168 519 91 442 91 346C91 328 104 316 121 316L163 316C180 316 193 328 193 346C193 386 225 417 264 417L275 417C320 417 345 396 345 361C345 324 245 309 228 304C161 284 81 253 81 153L81 132C81 50 148 -11 233 -11L253 -11C294 -11 336 4 371 28C388 11 411 0 437 0L458 0C475 0 488 13 488 30ZM345 163C345 120 303 91 253 91L234 91C198 91 183 118 183 137L183 153C183 174 198 197 228 210C266 226 299 228 345 251Z"/>
<glyph unicode="&#x62;" horiz-adv-x="528" d="M455 346C455 441 378 519 282 519L262 519C236 519 212 514 191 504L191 682C191 699 178 712 161 712L119 712C102 712 89 699 89 682L89 31C89 13 102 0 119 0L160 0C169 0 177 4 182 10C206 -3 233 -11 262 -11L282 -11C378 -11 455 67 455 162ZM353 162C353 123 322 91 282 91L262 91C223 91 191 123 191 162L191 346C191 385 223 417 262 417L282 417C322 417 353 385 353 346Z"/>
<glyph unicode="&#x63;" horiz-adv-x="528" d="M447 162C447 179 433 193 417 193L375 193C358 193 345 179 345 162C345 123 314 91 275 91L253 91C214 91 183 123 183 162L183 346C183 385 214 417 253 417L275 417C314 417 345 385 345 346C345 328 358 316 375 316L417 316C433 316 447 328 447 346C447 442 370 519 275 519L253 519C158 519 81 442 81 346L81 162C81 67 158 -11 253 -11L275 -11C370 -11 447 67 447 162Z"/>
<glyph unicode="&#x64;" horiz-adv-x="528" d="M439 682C439 699 426 712 409 712L367 712C350 712 337 699 337 682L337 504C316 514 292 519 266 519L246 519C150 519 73 442 73 346L73 162C73 68 150 -11 246 -11L266 -11C295 -11 322 -3 346 10C351 4 359 0 368 0L409 0C426 0 439 13 439 30ZM337 162C337 123 305 91 266 91L246 91C206 91 175 123 175 162L175 346C175 385 206 417 246 417L266 417C305 417 337 385 337 346Z"/>
<glyph unicode="&#x65;" horiz-adv-x="528" d="M447 346C447 441 370 519 275 519L253 519C158 519 81 441 81 346L81 162C81 67 158 -11 253 -11L275 -11C354 -11 421 43 442 118C446 133 436 152 420 156L380 165C364 169 347 160 343 144C342 138 325 91 275 91L253 91C214 91 183 123 183 162L183 203L417 203C434 203 447 216 447 233ZM346 305L183 305L183 346C183 385 214 417 253 417L275 417C314 417 346 385 346 346Z"/>
<glyph unicode="&#x66;" horiz-adv-x="528" d="M518 488L518 550C518 639 457 723 355 723L315 723C213 723 152 639 152 550L152 468L100 468C83 468 70 455 70 438L70 396C70 379 83 366 100 366L152 366L152 102L89 102C72 102 60 89 60 72L60 30C60 13 72 0 89 0L407 0C424 0 437 13 437 30L437 72C437 89 424 102 407 102L254 102L254 366L346 366C362 366 376 379 376 396L376 438C376 455 362 468 346 468L254 468L254 550C254 595 282 621 316 621L354 621C389 621 416 595 416 550L416 488C416 471 429 458 446 458L488 458C505 458 518 471 518 488Z"/>
<glyph unicode="&#x67;" horiz-adv-x="528" d="M439 479C439 496 426 509 409 509L368 509C359 509 351 506 347 500C323 513 295 519 266 519L246 519C150 519 73 442 73 346L73 162C73 67 150 -10 246 -10L266 -10C292 -10 316 -4 337 6L337 -40C337 -80 305 -111 266 -111L246 -111C226 -111 209 -104 196 -91C190 -85 182 -82 174 -82C166 -82 159 -85 153 -91L124 -120C117 -127 114 -134 114 -142C114 -150 117 -156 124 -163C155 -194 198 -213 246 -213L266 -213C362 -213 439 -136 439 -40ZM337 162C337 123 305 92 266 92L246 92C206 92 175 123 175 162L175 346C175 385 206 417 246 417L266 417C305 417 337 385 337 346Z"/>
<glyph unicode="&#x68;" horiz-adv-x="528" d="M421 0C438 0 451 13 451 30L451 346C451 441 373 519 278 519L258 519C232 519 208 514 186 504L186 682C186 699 173 712 156 712L114 712C98 712 84 699 84 682L84 30C84 13 97 0 114 0L156 0C173 0 186 13 186 30L186 346C186 385 219 417 258 417L278 417C318 417 349 385 349 346L349 30C349 13 362 0 379 0Z"/>
<glyph unicode="&#x69;" horiz-adv-x="528" d="M355 682C355 699 342 712 325 712L244 712C227 712 213 699 213 682L213 600C213 583 227 570 244 570L325 570C342 570 355 583 355 600ZM488 71C488 88 474 102 458 102L346 102L346 480C346 497 333 510 316 510L132 510C115 510 101 497 101 480L101 438C101 421 114 408 131 408L244 408L244 102L90 102C73 102 60 89 60 72L60 30C60 13 73 0 90 0L458 0C475 0 488 13 488 30Z"/>
<glyph unicode="&#x6a;" horiz-adv-x="528" d="M396 480C396 496 382 510 366 510L142 510C125 510 111 497 111 480L111 438C111 421 125 408 142 408L294 408L294 -40C294 -80 263 -112 224 -112C184 -112 152 -80 152 -40L152 21C152 38 138 51 122 51L81 51C64 51 50 38 50 21L50 -40C50 -136 128 -214 224 -214C319 -214 396 -136 396 -40ZM405 682C405 699 392 712 375 712L294 712C277 712 263 699 263 682L263 600C263 583 277 570 294 570L375 570C392 570 405 583 405 600Z"/>
<glyph unicode="&#x6b;" horiz-adv-x="528" d="M451 0C470 0 483 13 483 29C483 36 480 43 475 50L281 292L446 457C454 465 457 473 457 481C457 496 445 509 425 509L368 509C360 509 351 505 346 500L182 337L182 682C182 699 169 712 152 712L110 712C93 712 80 699 80 682L80 30C80 13 93 0 110 0L152 0C169 0 182 13 182 30L182 193L209 219L375 12C380 5 390 0 398 0Z"/>
<glyph unicode="&#x6c;" horiz-adv-x="528" d="M458 0C475 0 488 13 488 30L488 72C488 89 475 102 458 102L335 102L335 682C335 699 322 712 304 712L121 712C104 712 91 699 91 682L91 640C91 623 104 610 121 610L233 610L233 102L80 102C63 102 50 89 50 72L50 30C50 13 63 0 80 0Z"/>
<glyph unicode="&#x6d;" horiz-adv-x="528" d="M458 0C475 0 488 13 488 30L488 386C488 460 428 519 355 519L346 519C315 519 286 509 264 492C242 509 213 519 182 519L173 519C154 519 135 516 119 508C117 509 114 510 111 510L70 510C53 510 40 497 40 480L40 30C40 13 54 0 70 0L112 0C129 0 142 13 142 30L142 387C142 404 156 417 173 417L182 417C200 417 213 404 213 387L213 29C213 13 226 0 243 0L285 0C302 0 315 13 315 29L315 387C315 404 328 417 346 417L355 417C372 417 386 404 386 387L386 30C386 13 399 0 416 0Z"/>
<glyph unicode="&#x6e;" horiz-adv-x="528" d="M421 0C439 0 451 13 451 30L451 346C451 441 373 519 278 519L258 519C229 519 202 513 178 500C173 506 164 510 156 510L115 510C98 510 84 497 84 480L84 30C84 13 97 0 114 0L156 0C173 0 186 13 186 30L186 346C186 385 219 417 258 417L278 417C318 417 349 385 349 346L349 30C349 13 362 0 379 0Z"/>
<glyph unicode="&#x6f;" horiz-adv-x="528" d="M447 346C447 441 370 519 275 519L253 519C158 519 81 441 81 346L81 162C81 67 158 -11 253 -11L275 -11C370 -11 447 67 447 162ZM345 162C345 123 314 91 275 91L253 91C214 91 183 123 183 162L183 346C183 385 214 417 253 417L275 417C314 417 345 385 345 346Z"/>
<glyph unicode="&#x70;" horiz-adv-x="528" d="M455 346C455 441 378 519 282 519L262 519C233 519 206 513 182 500C177 506 169 510 160 510L119 510C102 510 89 497 89 480L89 -174C89 -192 102 -204 119 -204L160 -204C177 -204 191 -192 191 -174L191 5C212 -5 236 -11 262 -11L282 -11C378 -11 455 66 455 162ZM353 162C353 123 322 91 282 91L262 91C223 91 191 123 191 162L191 346C191 385 223 417 262 417L282 417C322 417 353 385 353 346Z"/>
<glyph unicode="&#x71;" horiz-adv-x="528" d="M439 480C439 497 425 510 409 510L368 510C359 510 351 506 346 500C322 513 295 519 266 519L246 519C150 519 73 441 73 346L73 162C73 66 150 -11 246 -11L266 -11C292 -11 316 -5 337 5L337 -174C337 -191 350 -204 367 -204L409 -204C426 -204 439 -191 439 -174ZM337 162C337 123 305 91 266 91L246 91C206 91 175 123 175 162L175 346C175 385 206 417 246 417L266 417C305 417 337 385 337 346Z"/>
<glyph unicode="&#x72;" horiz-adv-x="528" d="M356 0C373 0 386 13 386 30L386 72C386 89 373 102 356 102L203 102L203 346C203 387 237 417 275 417L295 417C331 417 366 387 366 346L366 275C366 258 379 245 396 245L438 245C455 245 468 258 468 275L468 346C468 437 395 519 295 519L275 519C175 519 101 437 101 346L101 102L49 102C33 102 19 89 19 72L19 30C19 13 33 0 49 0Z"/>
<glyph unicode="&#x73;" horiz-adv-x="528" d="M458 153C458 327 193 288 193 360C193 393 217 417 264 417L275 417C320 417 345 391 345 355C345 338 358 325 375 325L417 325C434 325 447 338 447 355C447 458 364 519 275 519L264 519C176 519 91 463 91 360C91 185 356 226 356 153C356 119 329 91 284 91L253 91C208 91 183 119 183 153L183 164C183 181 170 194 153 194L111 194C94 194 81 181 81 164L81 153C81 51 164 -11 253 -11L284 -11C373 -11 458 51 458 153Z"/>
<glyph unicode="&#x74;" horiz-adv-x="528" d="M468 184C468 201 455 214 438 214L396 214C379 214 366 201 366 184L366 162C366 123 334 91 295 91C255 91 224 123 224 162L224 387L396 387C413 387 427 400 427 417L427 459C427 476 413 489 396 489L224 489L224 682C224 699 211 712 194 712L151 712C133 712 122 699 122 682L122 489L70 489C53 489 40 475 40 458L40 418C40 401 53 387 70 387L122 387L122 162C122 66 199 -11 295 -11C390 -11 468 66 468 162Z"/>
<glyph unicode="&#x75;" horiz-adv-x="528" d="M414 0C431 0 444 13 444 30L444 480C444 496 429 510 413 510L372 510C355 510 342 496 342 480L342 162C342 123 309 91 270 91L250 91C210 91 179 123 179 162L179 480C179 497 166 510 149 510L107 510C90 510 77 497 77 480L77 162C77 66 155 -11 250 -11L270 -11C299 -11 326 -3 350 10C355 4 364 0 372 0Z"/>
<glyph unicode="&#x76;" horiz-adv-x="528" d="M299 0C312 0 322 8 326 20L483 469C491 491 476 510 454 510L410 510C399 510 385 503 381 490L263 133L145 490C141 503 127 510 116 510L72 510C50 510 35 491 43 469L200 20C204 8 214 0 227 0Z"/>
<glyph unicode="&#x77;" horiz-adv-x="528" d="M506 268L506 480C506 497 493 510 476 510L434 510C417 510 404 497 404 480L404 280L398 173C396 142 396 121 396 111L373 111C373 121 371 142 366 173L338 357C336 373 326 387 307 387L221 387C202 387 192 373 190 357L162 173C157 142 155 121 155 111L132 111C132 121 132 142 130 173L124 280L124 480C124 497 111 510 94 510L52 510C35 510 22 497 22 480L22 268L53 25C55 9 68 0 84 0L189 0C204 0 216 9 218 23L246 194C251 225 252 269 252 279L276 279C276 269 277 225 282 194L310 23C312 9 324 0 339 0L444 0C460 0 473 9 475 25Z"/>
<glyph unicode="&#x78;" horiz-adv-x="528" d="M441 0C467 0 480 26 466 47L324 262L457 463C471 485 458 510 432 510L383 510C374 510 363 503 358 496L264 354L170 496C165 503 154 510 145 510L96 510C70 510 57 485 71 463L204 262L62 47C48 26 61 0 87 0L136 0C145 0 156 4 162 13L264 169L366 13C372 4 383 0 392 0Z"/>
<glyph unicode="&#x79;" horiz-adv-x="528" d="M447 471C452 492 439 510 418 510L377 510C363 510 351 501 348 488L267 180L189 489C186 501 173 510 159 510L117 510C96 510 82 492 88 470L220 34C213 12 208 -7 203 -20C189 -58 169 -61 135 -61L90 -61C73 -61 60 -74 60 -91L60 -133C60 -150 73 -163 90 -163L111 -163C189 -163 269 -156 302 -45C330 51 447 471 447 471Z"/>
<glyph unicode="&#x7a;" horiz-adv-x="528" d="M438 0C455 0 468 13 468 30L468 72C468 89 455 102 438 102L217 102L442 415C445 419 447 426 447 432L447 480C447 497 434 510 417 510L121 510C104 510 91 496 91 480L91 439C91 422 104 408 121 408L315 408L86 96C83 92 81 83 81 78L81 30C81 13 94 0 111 0Z"/>
<glyph unicode="&#x7b;" horiz-adv-x="528" d="M397 -204C414 -204 427 -191 427 -174L427 -132C427 -115 414 -102 397 -102L376 -102C337 -102 305 -71 305 -31L305 132C305 180 285 224 254 254C285 284 305 328 305 376L305 539C305 579 337 610 376 610L397 610C414 610 427 623 427 640L427 682C427 699 414 712 397 712L376 712C280 712 203 635 203 539L203 376C203 336 171 305 132 305C115 305 101 292 101 275L101 233C101 216 115 203 132 203C171 203 203 172 203 132L203 -31C203 -127 280 -204 376 -204Z"/>
<glyph unicode="&#x7c;" horiz-adv-x="528" d="M285 -204C302 -204 315 -191 315 -174L315 682C315 699 302 712 285 712L243 712C226 712 213 699 213 682L213 -174C213 -191 226 -204 243 -204Z"/>
<glyph unicode="&#x7d;" horiz-adv-x="528" d="M152 -204C248 -204 325 -127 325 -31L325 132C325 172 357 203 396 203C413 203 427 216 427 233L427 275C427 292 413 305 396 305C357 305 325 336 325 376L325 539C325 635 248 712 152 712L131 712C114 712 101 699 101 682L101 640C101 623 114 610 131 610L152 610C191 610 223 579 223 539L223 376C223 328 243 284 274 254C243 224 223 180 223 132L223 -31C223 -71 191 -102 152 -102L131 -102C114 -102 101 -115 101 -132L101 -174C101 -191 114 -204 131 -204Z"/>
<glyph unicode="&#x7e;" horiz-adv-x="528" d="M468 305C468 323 454 335 437 335L396 335C380 335 364 322 364 305L364 295C364 284 355 276 343 276C333 276 318 283 300 301C261 340 222 355 185 355C114 355 60 303 60 245L60 224C60 206 74 194 91 194L132 194C148 194 164 207 164 224L164 234C164 245 173 253 185 253C195 253 210 246 228 228C267 189 306 174 343 174C414 174 468 226 468 284Z"/>
<glyph unicode="&#xa0;" horiz-adv-x="528" />
<glyph unicode="&#xa1;" horiz-adv-x="528" d="M315 264C315 281 302 294 285 294L243 294C226 294 213 281 213 264L213 -174C213 -191 226 -204 243 -204L285 -204C302 -204 315 -191 315 -174ZM345 480C345 497 332 510 315 510L213 510C196 510 183 497 183 480L183 378C183 361 197 348 213 348L314 348C331 348 345 361 345 378Z"/>
<glyph unicode="&#xa2;" horiz-adv-x="528" d="M448 162C448 179 434 192 418 192L376 192C359 192 346 179 346 162C346 123 314 91 275 91L253 91C249 91 243 92 238 93L340 373C344 366 346 356 346 346C346 328 359 316 376 316L418 316C435 316 448 328 448 346C448 402 420 452 380 484L397 531C399 537 396 542 391 544L353 558C348 560 342 557 340 552L325 512C309 516 292 519 275 519L253 519C158 519 80 442 80 347L80 162C80 107 108 58 148 26L131 -22C129 -28 131 -34 137 -36L175 -49C180 -51 186 -48 188 -43L203 -3C219 -8 236 -11 253 -11L275 -11C370 -11 448 66 448 162ZM188 135C184 144 182 153 182 162L182 347C182 386 214 418 253 418L275 418C279 418 285 417 290 416Z"/>
<glyph unicode="&#xa3;" horiz-adv-x="528" d="M448 0C465 0 478 13 478 30L478 72C478 89 465 102 448 102L198 102C207 124 213 148 213 173L213 305L366 305C383 305 396 318 396 335L396 377C396 394 383 407 366 407L213 407L213 550C213 589 245 621 284 621L304 621C344 621 376 589 376 550L376 478C376 461 389 448 406 448L448 448C465 448 478 461 478 478L478 550C478 645 400 723 304 723L284 723C189 723 111 645 111 550L111 407L80 407C63 407 50 394 50 377L50 335C50 318 63 305 80 305L111 305L111 173C111 133 80 102 40 102C23 102 10 89 10 72L10 30C10 13 23 0 40 0Z"/>
<glyph unicode="&#xa4;" horiz-adv-x="528" d="M437 264C437 293 429 321 416 345L428 357C434 363 437 370 437 378C437 386 434 394 428 400L399 429C393 435 386 437 378 437C370 437 362 435 356 429L344 417C320 429 293 437 264 437C235 437 208 429 184 417L172 429C166 435 158 437 150 437C142 437 135 435 129 429L100 400C94 394 91 386 91 378C91 370 94 363 100 357L111 345C98 321 91 293 91 264C91 234 98 207 111 182L100 171C94 165 91 158 91 150C91 142 94 134 100 128L129 99C135 93 142 91 150 91C158 91 166 93 172 99L184 111C208 98 235 91 264 91C293 91 320 98 344 111L356 99C362 93 370 91 378 91C386 91 393 93 399 99L428 128C434 134 437 142 437 150C437 158 434 165 428 171L416 182C429 207 437 234 437 264ZM335 264C335 224 304 193 264 193C224 193 193 224 193 264C193 304 224 335 264 335C304 335 335 304 335 264Z"/>
<glyph unicode="&#xa5;" horiz-adv-x="528" d="M456 671C464 692 450 712 427 712L384 712C372 712 359 704 355 693L264 446L173 693C169 704 156 712 144 712L101 712C78 712 64 692 72 671L187 376L131 376C114 376 101 363 101 347L101 304C101 287 114 274 131 274L213 274L213 234L131 234C114 234 101 221 101 204L101 162C101 145 114 132 131 132L213 132L213 30C213 13 226 0 243 0L285 0C302 0 315 13 315 30L315 132L397 132C414 132 427 145 427 162L427 204C427 221 414 234 397 234L315 234L315 274L397 274C414 274 427 287 427 304L427 347C427 363 414 376 397 376L341 376Z"/>
<glyph unicode="&#xa6;" horiz-adv-x="528" d="M315 682C315 699 302 712 285 712L243 712C226 712 213 699 213 682L213 437C213 420 226 407 243 407L285 407C302 407 315 420 315 437ZM315 275C315 292 302 305 285 305L243 305C226 305 213 292 213 275L213 30C213 13 226 0 243 0L285 0C302 0 315 13 315 30Z"/>
<glyph unicode="&#xa7;" horiz-adv-x="528" d="M488 204C488 438 183 433 183 560C183 594 208 621 253 621L275 621C314 621 346 589 346 550C346 533 359 519 376 519L418 519C435 519 448 533 448 550C448 645 370 723 275 723L253 723C164 723 80 661 80 560C80 519 92 487 110 460C70 430 40 377 40 305C40 72 345 76 345 -51C345 -84 320 -112 275 -112L244 -112C204 -112 173 -80 173 -40L173 -19C173 -3 160 11 143 11L101 11C84 11 71 -3 71 -19L71 -40C71 -136 148 -214 244 -214L275 -214C364 -214 447 -153 447 -51C447 -11 436 22 418 49C458 80 488 132 488 204ZM386 204C386 138 347 123 336 122C267 166 142 207 142 305C142 371 181 386 192 387C261 344 386 301 386 204Z"/>
<glyph unicode="&#xa8;" horiz-adv-x="528" d="M233 682C233 699 220 712 203 712L131 712C114 712 101 699 101 682L101 600C101 583 114 570 131 570L203 570C220 570 233 583 233 600ZM427 682C427 699 414 712 397 712L325 712C308 712 295 699 295 682L295 600C295 583 308 570 325 570L397 570C414 570 427 583 427 600Z"/>
<glyph unicode="&#xa9;" horiz-adv-x="528" d="M361 468C361 477 355 484 346 484L325 484C316 484 310 477 310 468C310 455 299 444 284 444L244 444C229 444 218 455 218 468L218 550C218 564 229 576 244 576L284 576C299 576 310 564 310 550C310 541 316 534 325 534L346 534C355 534 361 541 361 550C361 592 326 627 284 627L244 627C202 627 167 592 167 550L167 468C167 426 202 393 244 393L284 393C326 393 361 426 361 468ZM452 535C452 639 369 723 264 723C159 723 76 639 76 535L76 484C76 380 159 296 264 296C369 296 452 380 452 484ZM401 484C401 408 340 347 264 347C188 347 127 408 127 484L127 535C127 611 188 672 264 672C340 672 401 611 401 535Z"/>
<glyph unicode="&#xaa;" horiz-adv-x="528" d="M427 468C427 485 413 499 396 499L386 499L386 682C386 699 372 712 355 712L315 712C310 712 306 712 302 710C285 718 265 723 244 723L233 723C155 723 91 660 91 581L91 540C91 461 155 397 233 397L244 397C271 397 297 405 318 418C334 405 354 397 376 397L397 397C414 397 427 411 427 427ZM101 264C101 246 114 234 131 234L387 234C404 234 417 246 417 264L417 306C417 324 404 336 387 336L131 336C114 336 101 324 101 306ZM284 540C284 517 266 499 244 499L233 499C211 499 193 517 193 540L193 581C193 603 211 621 233 621L244 621C266 621 284 603 284 581Z"/>
<glyph unicode="&#xab;" horiz-adv-x="528" d="M369 254L452 380C456 386 458 393 458 399C458 414 446 427 427 427L380 427C372 427 361 423 355 414L270 286C267 282 264 275 264 270L264 238C264 233 267 226 270 222L355 94C361 85 372 81 380 81L427 81C446 81 458 94 458 109C458 115 456 122 452 128ZM175 254L258 380C262 386 264 393 264 399C264 414 252 427 233 427L186 427C178 427 167 423 161 414L76 286C73 282 70 275 70 270L70 238C70 233 73 226 76 222L161 94C167 85 178 81 186 81L233 81C252 81 264 94 264 109C264 115 262 122 258 128Z"/>
<glyph unicode="&#xac;" horiz-adv-x="528" d="M397 132C414 132 427 145 427 162L427 286C427 302 414 316 397 316L131 316C114 316 101 302 101 286L101 244C101 227 114 214 131 214L325 214L325 162C325 145 338 132 355 132Z"/>
<glyph unicode="&#xad;" horiz-adv-x="528" d="M397 214C414 214 427 227 427 244L427 286C427 302 414 316 397 316L132 316C115 316 101 302 101 286L101 244C101 227 115 214 132 214Z"/>
<glyph unicode="&#xae;" horiz-adv-x="528" d="M452 535C452 639 369 723 264 723C159 723 76 639 76 535L76 484C76 380 159 296 264 296C369 296 452 380 452 484ZM401 484C401 408 340 347 264 347C188 347 127 408 127 484L127 535C127 611 188 672 264 672C340 672 401 611 401 535ZM361 551C361 593 326 627 284 627L193 627C184 627 178 620 178 612L178 408C178 400 184 393 193 393L213 393C221 393 228 400 228 408L228 465L272 465L310 400C313 395 318 393 323 393L347 393C360 393 368 404 360 417L324 475C346 489 361 514 361 540ZM309 540C309 527 299 516 284 516L228 516L228 576L284 576C299 576 309 565 309 551Z"/>
<glyph unicode="&#xaf;" horiz-adv-x="528" d="M382 590C399 590 412 603 412 620L412 662C412 678 399 692 382 692L146 692C129 692 116 678 116 662L116 620C116 603 129 590 146 590Z"/>
<glyph unicode="&#xb0;" horiz-adv-x="528" d="M427 550C427 645 350 723 254 723C158 723 81 645 81 550L81 509C81 414 158 336 254 336C350 336 427 414 427 509ZM325 509C325 469 294 438 254 438C214 438 183 469 183 509L183 550C183 590 214 621 254 621C294 621 325 590 325 550Z"/>
<glyph unicode="&#xb1;" horiz-adv-x="528" d="M427 377C427 394 414 407 397 407L315 407L315 458C315 475 301 489 284 489L244 489C227 489 213 475 213 458L213 407L131 407C114 407 101 395 101 377L101 335C101 318 114 305 131 305L213 305L213 254C213 237 226 224 243 224L285 224C302 224 315 237 315 254L315 305L397 305C414 305 427 318 427 335ZM427 154C427 171 414 184 397 184L131 184C114 184 101 171 101 155L101 112C101 95 114 82 131 82L397 82C414 82 427 94 427 112Z"/>
<glyph unicode="&#xb2;" horiz-adv-x="528" d="M228 427C239 427 249 437 249 447L249 479C249 490 239 499 228 499L142 499C142 502 142 506 148 511C185 543 244 577 244 635C244 683 204 723 157 723L147 723C99 723 60 683 60 635C60 625 70 615 81 615L111 615C122 615 131 625 131 635C131 644 138 651 147 651L157 651C165 651 173 644 173 635C173 603 60 562 60 489L60 447C60 437 70 427 81 427Z"/>
<glyph unicode="&#xb3;" horiz-adv-x="528" d="M167 418C215 418 253 456 253 504L253 524C253 559 233 588 204 603L240 639C243 643 244 647 244 651L244 692C244 704 235 713 224 713L96 713C85 713 76 704 76 693L76 659C76 648 85 640 96 640L142 640L115 611C112 608 111 604 111 602L111 560C111 549 121 540 132 540L167 540C176 540 182 533 182 524L182 504C182 495 176 489 167 489L147 489C138 489 132 495 132 504C132 516 122 524 111 524L81 524C70 524 60 516 60 504C60 456 99 418 147 418Z"/>
<glyph unicode="&#xb4;" horiz-adv-x="528" d="M357 660C364 667 367 676 367 684C367 699 355 712 336 712L275 712C266 712 257 708 251 701L169 599C163 592 161 585 161 578C161 563 174 550 193 550L235 550C242 550 251 553 256 558Z"/>
<glyph unicode="&#xb5;" horiz-adv-x="528" d="M417 0C434 0 447 13 447 30L447 480C447 497 434 510 417 510L375 510C358 510 345 497 345 480L345 162C345 123 314 91 275 91L253 91C214 91 183 123 183 162L183 480C183 497 170 510 153 510L111 510C94 510 81 497 81 480L81 -174C81 -191 94 -204 111 -204L153 -204C170 -204 183 -191 183 -174L183 5C205 -5 228 -11 253 -11L275 -11C303 -11 330 -3 354 10C360 4 368 0 376 0Z"/>
<glyph unicode="&#xb6;" horiz-adv-x="528" d="M428 -204C445 -204 458 -191 458 -174L458 682C458 699 445 712 428 712L203 712C108 712 30 636 30 540L30 489C30 396 102 322 193 316L193 -174C193 -191 205 -204 223 -204L265 -204C282 -204 295 -191 295 -174L295 610L356 610L356 -174C356 -191 369 -204 386 -204Z"/>
<glyph unicode="&#xb7;" horiz-adv-x="528" d="M314 174C330 174 345 187 345 205L345 305C345 322 330 336 314 336L214 336C198 336 183 322 183 305L183 205C183 187 198 174 214 174Z"/>
<glyph unicode="&#xb8;" horiz-adv-x="528" d="M204 0L187 -51C185 -57 183 -64 183 -71C183 -85 190 -98 214 -98L257 -98C271 -98 282 -89 286 -77L315 12Z"/>
<glyph unicode="&#xb9;" horiz-adv-x="528" d="M233 417C244 417 253 424 253 435L253 468C253 479 245 488 234 488L198 488L198 691C198 703 188 712 178 712L132 712C126 712 123 712 118 707L65 654C58 646 57 633 65 625L87 604C95 596 108 596 116 604L127 614L127 488L81 488C70 488 60 478 60 467L60 437C60 426 70 417 81 417Z"/>
<glyph unicode="&#xba;" horiz-adv-x="528" d="M396 580C396 659 333 723 254 723L233 723C155 723 91 659 91 580L91 540C91 461 154 397 233 397L254 397C333 397 396 461 396 540ZM193 580C193 603 210 621 233 621L254 621C277 621 294 603 294 580L294 540C294 517 277 499 254 499L233 499C210 499 193 517 193 540ZM101 264C101 246 114 234 131 234L357 234C374 234 387 246 387 264L387 306C387 324 374 336 357 336L131 336C114 336 101 324 101 306Z"/>
<glyph unicode="&#xbb;" horiz-adv-x="528" d="M76 128C72 122 70 115 70 109C70 94 82 81 101 81L148 81C156 81 167 85 173 94L258 222C261 226 264 233 264 238L264 270C264 275 261 282 258 286L173 414C167 423 156 427 148 427L101 427C82 427 70 414 70 399C70 393 72 386 76 380L159 254ZM270 128C266 122 264 115 264 109C264 94 276 81 295 81L342 81C350 81 361 85 367 94L452 222C455 226 458 233 458 238L458 270C458 275 455 282 452 286L367 414C361 423 350 427 342 427L295 427C276 427 264 414 264 399C264 393 266 386 270 380L353 254Z"/>
<glyph unicode="&#xbc;" horiz-adv-x="528" d="M468 97C468 108 458 117 447 117L432 117L432 142C432 154 423 162 412 162L381 162C370 162 361 154 361 142L361 117L326 117L396 266C398 270 399 274 399 277C399 288 391 296 378 296L345 296C338 296 329 290 326 283L251 124C250 121 249 118 249 115L249 66C249 55 258 46 270 46L361 46L361 20C361 9 369 0 381 0L412 0C423 0 432 9 432 20L432 46L447 46C458 46 468 55 468 66ZM253 468C253 479 245 488 234 488L198 488L198 691C198 703 188 712 178 712L132 712C126 712 123 712 118 707L65 654C58 646 57 633 65 625L87 604C95 596 108 596 116 604L127 614L127 488L81 488C70 488 60 478 60 467L60 437C60 426 70 417 81 417L233 417C244 417 253 424 253 435ZM393 515C389 519 384 521 379 521C374 521 368 519 364 515L106 256C102 252 100 247 100 242C100 237 102 232 106 228L134 199C138 195 144 193 149 193C154 193 159 195 163 199L421 457C425 461 427 466 427 471C427 476 425 482 421 486Z"/>
<glyph unicode="&#xbd;" horiz-adv-x="528" d="M253 468C253 479 245 488 234 488L198 488L198 691C198 703 188 712 178 712L132 712C126 712 123 712 118 707L65 654C58 646 57 633 65 625L87 604C95 596 108 596 116 604L127 614L127 488L81 488C70 488 60 478 60 467L60 437C60 426 70 417 81 417L233 417C244 417 253 424 253 435ZM468 52C468 63 458 72 447 72L361 72C361 75 361 79 367 84C404 116 463 150 463 208C463 256 423 296 376 296L366 296C318 296 279 256 279 208C279 198 289 188 300 188L330 188C341 188 350 198 350 208C350 217 357 224 366 224L376 224C384 224 392 217 392 208C392 176 279 135 279 62L279 20C279 10 289 0 300 0L447 0C458 0 468 10 468 20ZM393 515C389 519 384 521 379 521C374 521 368 519 364 515L106 256C102 252 100 247 100 242C100 237 102 232 106 228L134 199C138 195 144 193 149 193C154 193 159 195 163 199L421 457C425 461 427 466 427 471C427 476 425 482 421 486Z"/>
<glyph unicode="&#xbe;" horiz-adv-x="528" d="M253 524C253 559 233 588 204 603L240 639C243 643 244 647 244 651L244 692C244 704 235 713 224 713L96 713C85 713 76 704 76 693L76 659C76 648 85 640 96 640L142 640L115 611C112 608 111 604 111 602L111 560C111 549 121 540 132 540L167 540C176 540 182 533 182 524L182 504C182 495 176 489 167 489L147 489C138 489 132 495 132 504C132 516 122 524 111 524L81 524C70 524 60 516 60 504C60 456 99 418 147 418L167 418C215 418 253 456 253 504ZM468 97C468 108 458 117 447 117L432 117L432 142C432 154 423 162 412 162L381 162C370 162 361 154 361 142L361 117L326 117L396 266C398 270 399 274 399 277C399 288 391 296 378 296L345 296C338 296 329 290 326 283L251 124C250 121 249 118 249 115L249 66C249 55 258 46 270 46L361 46L361 20C361 9 369 0 381 0L412 0C423 0 432 9 432 20L432 46L447 46C458 46 468 55 468 66ZM393 515C389 519 384 521 379 521C374 521 368 519 364 515L106 256C102 252 100 247 100 242C100 237 102 232 106 228L134 199C138 195 144 193 149 193C154 193 159 195 163 199L421 457C425 461 427 466 427 471C427 476 425 482 421 486Z"/>
<glyph unicode="&#xbf;" horiz-adv-x="528" d="M80 -42C80 -137 158 -215 253 -215L275 -215C370 -215 446 -137 446 -42L446 -11C446 5 433 18 416 18L376 18C359 18 346 5 346 -11L346 -42C346 -81 314 -113 275 -113L253 -113C214 -113 182 -81 182 -42L182 -22C182 3 185 40 253 90C331 149 335 208 335 265C335 282 322 295 305 295L263 295C246 295 233 282 233 265C233 221 233 202 193 172C99 101 80 36 80 -22ZM203 378C203 361 217 348 234 348L335 348C351 348 365 361 365 378L365 480C365 497 352 510 335 510L233 510C216 510 203 497 203 480Z"/>
<glyph unicode="&#xc0;" horiz-adv-x="528" d="M468 278C468 279 468 281 467 284L360 690C356 705 344 712 330 712L198 712C184 712 172 705 168 690L61 284C60 281 60 279 60 278L60 30C60 13 73 0 90 0L133 0C150 0 162 13 162 30L162 223L366 223L366 30C366 13 379 0 396 0L438 0C455 0 468 13 468 30ZM350 325L178 325L252 610L276 610ZM232 762C237 757 246 754 253 754L295 754C314 754 327 767 327 782C327 789 325 796 319 803L237 905C231 912 222 916 213 916L152 916C133 916 121 903 121 888C121 880 124 871 131 864Z"/>
<glyph unicode="&#xc1;" horiz-adv-x="528" d="M468 278C468 279 468 281 467 284L360 690C356 705 344 712 330 712L198 712C184 712 172 705 168 690L61 284C60 281 60 279 60 278L60 30C60 13 73 0 90 0L133 0C150 0 162 13 162 30L162 223L366 223L366 30C366 13 379 0 396 0L438 0C455 0 468 13 468 30ZM350 325L178 325L252 610L276 610ZM397 864C404 871 407 880 407 888C407 903 395 916 376 916L315 916C306 916 297 912 291 905L209 803C203 796 201 789 201 782C201 767 214 754 233 754L275 754C282 754 291 757 296 762Z"/>
<glyph unicode="&#xc2;" horiz-adv-x="528" d="M468 278C468 279 468 281 467 284L360 690C356 705 344 712 330 712L198 712C184 712 172 705 168 690L61 284C60 281 60 279 60 278L60 30C60 13 73 0 90 0L133 0C150 0 162 13 162 30L162 223L366 223L366 30C366 13 379 0 396 0L438 0C455 0 468 13 468 30ZM350 325L178 325L252 610L276 610ZM328 904C322 912 312 916 304 916L224 916C216 916 206 912 200 904L118 803C112 796 110 790 110 783C110 768 123 754 142 754L182 754C190 754 198 756 204 762L264 822L324 762C330 756 338 754 346 754L386 754C405 754 418 768 418 783C418 790 416 796 410 803Z"/>
<glyph unicode="&#xc3;" horiz-adv-x="528" d="M468 278C468 279 468 281 467 284L360 690C356 705 344 712 330 712L198 712C184 712 172 705 168 690L61 284C60 281 60 279 60 278L60 30C60 13 73 0 90 0L133 0C150 0 162 13 162 30L162 223L366 223L366 30C366 13 379 0 396 0L438 0C455 0 468 13 468 30ZM350 325L178 325L252 610L276 610ZM421 841C421 859 408 868 392 868L365 868C348 868 339 858 334 841C333 838 330 835 323 835C316 835 305 838 289 849C263 867 234 875 207 875C153 875 107 842 107 781C107 763 120 754 136 754L163 754C180 754 189 764 194 781C195 784 198 787 205 787C212 787 223 784 239 773C265 755 294 747 321 747C375 747 421 780 421 841Z"/>
<glyph unicode="&#xc4;" horiz-adv-x="528" d="M468 278C468 279 468 281 467 284L360 690C356 705 344 712 330 712L198 712C184 712 172 705 168 690L61 284C60 281 60 279 60 278L60 30C60 13 73 0 90 0L133 0C150 0 162 13 162 30L162 223L366 223L366 30C366 13 379 0 396 0L438 0C455 0 468 13 468 30ZM350 325L178 325L252 610L276 610ZM233 886C233 903 220 916 203 916L131 916C114 916 101 903 101 886L101 804C101 787 114 774 131 774L203 774C220 774 233 787 233 804ZM427 886C427 903 414 916 397 916L325 916C308 916 295 903 295 886L295 804C295 787 308 774 325 774L397 774C414 774 427 787 427 804Z"/>
<glyph unicode="&#xc5;" horiz-adv-x="528" d="M468 278C468 279 468 281 467 284L360 690C356 705 344 712 330 712L198 712C184 712 172 705 168 690L61 284C60 281 60 279 60 278L60 30C60 13 73 0 90 0L133 0C150 0 162 13 162 30L162 223L366 223L366 30C366 13 379 0 396 0L438 0C455 0 468 13 468 30ZM350 325L178 325L252 610L276 610ZM367 819C367 875 321 916 265 916C209 916 163 875 163 819C163 763 209 722 265 722C321 722 367 763 367 819ZM285 819C285 807 276 804 265 804C254 804 245 807 245 819C245 831 254 834 265 834C276 834 285 831 285 819Z"/>
<glyph unicode="&#xc6;" horiz-adv-x="528" d="M488 72C488 89 475 102 458 102L346 102L346 305L438 305C455 305 468 318 468 335L468 377C468 394 455 407 438 407L346 407L346 610L458 610C475 610 488 623 488 640L488 682C488 699 475 712 458 712L177 712C164 712 151 703 148 690L40 284L40 30C40 13 53 0 70 0L112 0C129 0 142 13 142 30L142 224L244 224L244 30C244 13 256 0 274 0L458 0C475 0 488 13 488 30ZM244 325L156 325L232 610L244 610Z"/>
<glyph unicode="&#xc7;" horiz-adv-x="528" d="M190 -56C188 -62 186 -69 186 -76C186 -90 193 -103 217 -103L260 -103C274 -103 285 -94 289 -82L313 -9C395 4 458 75 458 161L458 194C458 211 445 224 428 224L385 224C368 224 355 211 355 194L355 161C355 122 324 91 284 91L253 91C214 91 182 122 182 161L182 550C182 589 214 621 253 621L284 621C324 621 355 589 355 550L355 529C355 512 368 499 385 499L428 499C445 499 458 512 458 529L458 550C458 645 380 723 284 723L253 723C158 723 80 645 80 550L80 161C80 81 134 15 207 -5Z"/>
<glyph unicode="&#xc8;" horiz-adv-x="528" d="M428 0C445 0 458 13 458 30L458 72C458 89 445 102 428 102L193 102L193 305L406 305C423 305 437 318 437 335L437 377C437 394 423 407 406 407L193 407L193 610L427 610C444 610 458 624 458 640L458 682C458 699 444 712 427 712L121 712C104 712 91 699 91 683L91 30C91 13 104 0 121 0ZM232 762C237 757 246 754 253 754L295 754C314 754 327 767 327 782C327 789 325 796 319 803L237 905C231 912 222 916 213 916L152 916C133 916 121 903 121 888C121 880 124 871 131 864Z"/>
<glyph unicode="&#xc9;" horiz-adv-x="528" d="M428 0C445 0 458 13 458 30L458 72C458 89 445 102 428 102L193 102L193 305L406 305C423 305 437 318 437 335L437 377C437 394 423 407 406 407L193 407L193 610L427 610C444 610 458 624 458 640L458 682C458 699 444 712 427 712L121 712C104 712 91 699 91 683L91 30C91 13 104 0 121 0ZM397 864C404 871 407 880 407 888C407 903 395 916 376 916L315 916C306 916 297 912 291 905L209 803C203 796 201 789 201 782C201 767 214 754 233 754L275 754C282 754 291 757 296 762Z"/>
<glyph unicode="&#xca;" horiz-adv-x="528" d="M428 0C445 0 458 13 458 30L458 72C458 89 445 102 428 102L193 102L193 305L406 305C423 305 437 318 437 335L437 377C437 394 423 407 406 407L193 407L193 610L427 610C444 610 458 624 458 640L458 682C458 699 444 712 427 712L121 712C104 712 91 699 91 683L91 30C91 13 104 0 121 0ZM338 904C332 912 322 916 314 916L234 916C226 916 216 912 210 904L128 803C122 796 120 790 120 783C120 768 133 754 152 754L192 754C200 754 208 756 214 762L274 822L334 762C340 756 348 754 356 754L396 754C415 754 428 768 428 783C428 790 426 796 420 803Z"/>
<glyph unicode="&#xcb;" horiz-adv-x="528" d="M428 0C445 0 458 13 458 30L458 72C458 89 445 102 428 102L193 102L193 305L406 305C423 305 437 318 437 335L437 377C437 394 423 407 406 407L193 407L193 610L427 610C444 610 458 624 458 640L458 682C458 699 444 712 427 712L121 712C104 712 91 699 91 683L91 30C91 13 104 0 121 0ZM233 886C233 903 220 916 203 916L131 916C114 916 101 903 101 886L101 804C101 787 114 774 131 774L203 774C220 774 233 787 233 804ZM427 886C427 903 414 916 397 916L325 916C308 916 295 903 295 886L295 804C295 787 308 774 325 774L397 774C414 774 427 787 427 804Z"/>
<glyph unicode="&#xcc;" horiz-adv-x="528" d="M428 0C445 0 458 13 458 30L458 72C458 89 445 102 428 102L315 102L315 610L417 610C434 610 447 623 447 640L447 682C447 699 434 712 417 712L111 712C94 712 81 699 81 682L81 640C81 623 94 610 111 610L213 610L213 102L100 102C83 102 70 89 70 72L70 30C70 13 83 0 100 0ZM232 762C237 757 246 754 253 754L295 754C314 754 327 767 327 782C327 789 325 796 319 803L237 905C231 912 222 916 213 916L152 916C133 916 121 903 121 888C121 880 124 871 131 864Z"/>
<glyph unicode="&#xcd;" horiz-adv-x="528" d="M428 0C445 0 458 13 458 30L458 72C458 89 445 102 428 102L315 102L315 610L417 610C434 610 447 623 447 640L447 682C447 699 434 712 417 712L111 712C94 712 81 699 81 682L81 640C81 623 94 610 111 610L213 610L213 102L100 102C83 102 70 89 70 72L70 30C70 13 83 0 100 0ZM397 864C404 871 407 880 407 888C407 903 395 916 376 916L315 916C306 916 297 912 291 905L209 803C203 796 201 789 201 782C201 767 214 754 233 754L275 754C282 754 291 757 296 762Z"/>
<glyph unicode="&#xce;" horiz-adv-x="528" d="M428 0C445 0 458 13 458 30L458 72C458 89 445 102 428 102L315 102L315 610L417 610C434 610 447 623 447 640L447 682C447 699 434 712 417 712L111 712C94 712 81 699 81 682L81 640C81 623 94 610 111 610L213 610L213 102L100 102C83 102 70 89 70 72L70 30C70 13 83 0 100 0ZM328 904C322 912 312 916 304 916L224 916C216 916 206 912 200 904L118 803C112 796 110 790 110 783C110 768 123 754 142 754L182 754C190 754 198 756 204 762L264 822L324 762C330 756 338 754 346 754L386 754C405 754 418 768 418 783C418 790 416 796 410 803Z"/>
<glyph unicode="&#xcf;" horiz-adv-x="528" d="M428 0C445 0 458 13 458 30L458 72C458 89 445 102 428 102L315 102L315 610L417 610C434 610 447 623 447 640L447 682C447 699 434 712 417 712L111 712C94 712 81 699 81 682L81 640C81 623 94 610 111 610L213 610L213 102L100 102C83 102 70 89 70 72L70 30C70 13 83 0 100 0ZM233 886C233 903 220 916 203 916L131 916C114 916 101 903 101 886L101 804C101 787 114 774 131 774L203 774C220 774 233 787 233 804ZM427 886C427 903 414 916 397 916L325 916C308 916 295 903 295 886L295 804C295 787 308 774 325 774L397 774C414 774 427 787 427 804Z"/>
<glyph unicode="&#xd0;" horiz-adv-x="528" d="M455 539C455 635 378 712 282 712L119 712C102 712 89 699 89 682L89 407L48 407C31 407 17 394 17 377L17 335C17 319 32 305 48 305L89 305L89 30C89 13 102 0 119 0L282 0C378 0 455 78 455 173ZM353 173C353 133 322 102 282 102L191 102L191 305L272 305C289 305 302 320 302 336L302 376C302 394 289 407 272 407L191 407L191 610L282 610C322 610 353 578 353 539Z"/>
<glyph unicode="&#xd1;" horiz-adv-x="528" d="M459 0C476 0 489 13 489 30L489 682C489 699 476 712 459 712L417 712C400 712 387 699 387 682L387 234C387 208 395 124 396 114L372 114C371 124 357 208 349 234L214 693C210 707 197 712 185 712L70 712C53 712 39 699 39 682L39 30C39 13 52 0 69 0L111 0C128 0 141 13 141 30L141 479C141 504 133 588 132 598L156 598C157 588 171 504 179 479L314 20C318 6 331 0 343 0ZM421 841C421 859 408 868 392 868L365 868C348 868 339 858 334 841C333 838 330 835 323 835C316 835 305 838 289 849C263 867 234 875 207 875C153 875 107 842 107 781C107 763 120 754 136 754L163 754C180 754 189 764 194 781C195 784 198 787 205 787C212 787 223 784 239 773C265 755 294 747 321 747C375 747 421 780 421 841Z"/>
<glyph unicode="&#xd2;" horiz-adv-x="528" d="M76 162C76 67 154 -11 249 -11L279 -11C374 -11 452 67 452 162L452 550C452 646 374 723 279 723L249 723C154 723 76 646 76 550ZM178 550C178 589 209 621 249 621L279 621C319 621 350 589 350 550L350 162C350 123 319 91 279 91L249 91C209 91 178 123 178 162ZM232 762C237 757 246 754 253 754L295 754C314 754 327 767 327 782C327 789 325 796 319 803L237 905C231 912 222 916 213 916L152 916C133 916 121 903 121 888C121 880 124 871 131 864Z"/>
<glyph unicode="&#xd3;" horiz-adv-x="528" d="M76 162C76 67 154 -11 249 -11L279 -11C374 -11 452 67 452 162L452 550C452 646 374 723 279 723L249 723C154 723 76 646 76 550ZM178 550C178 589 209 621 249 621L279 621C319 621 350 589 350 550L350 162C350 123 319 91 279 91L249 91C209 91 178 123 178 162ZM397 864C404 871 407 880 407 888C407 903 395 916 376 916L315 916C306 916 297 912 291 905L209 803C203 796 201 789 201 782C201 767 214 754 233 754L275 754C282 754 291 757 296 762Z"/>
<glyph unicode="&#xd4;" horiz-adv-x="528" d="M76 162C76 67 154 -11 249 -11L279 -11C374 -11 452 67 452 162L452 550C452 646 374 723 279 723L249 723C154 723 76 646 76 550ZM178 550C178 589 209 621 249 621L279 621C319 621 350 589 350 550L350 162C350 123 319 91 279 91L249 91C209 91 178 123 178 162ZM328 904C322 912 312 916 304 916L224 916C216 916 206 912 200 904L118 803C112 796 110 790 110 783C110 768 123 754 142 754L182 754C190 754 198 756 204 762L264 822L324 762C330 756 338 754 346 754L386 754C405 754 418 768 418 783C418 790 416 796 410 803Z"/>
<glyph unicode="&#xd5;" horiz-adv-x="528" d="M76 162C76 67 154 -11 249 -11L279 -11C374 -11 452 67 452 162L452 550C452 646 374 723 279 723L249 723C154 723 76 646 76 550ZM178 550C178 589 209 621 249 621L279 621C319 621 350 589 350 550L350 162C350 123 319 91 279 91L249 91C209 91 178 123 178 162ZM421 841C421 859 408 868 392 868L365 868C348 868 339 858 334 841C333 838 330 835 323 835C316 835 305 838 289 849C263 867 234 875 207 875C153 875 107 842 107 781C107 763 120 754 136 754L163 754C180 754 189 764 194 781C195 784 198 787 205 787C212 787 223 784 239 773C265 755 294 747 321 747C375 747 421 780 421 841Z"/>
<glyph unicode="&#xd6;" horiz-adv-x="528" d="M76 162C76 67 154 -11 249 -11L279 -11C374 -11 452 67 452 162L452 550C452 646 374 723 279 723L249 723C154 723 76 646 76 550ZM178 550C178 589 209 621 249 621L279 621C319 621 350 589 350 550L350 162C350 123 319 91 279 91L249 91C209 91 178 123 178 162ZM233 886C233 903 220 916 203 916L131 916C114 916 101 903 101 886L101 804C101 787 114 774 131 774L203 774C220 774 233 787 233 804ZM427 886C427 903 414 916 397 916L325 916C308 916 295 903 295 886L295 804C295 787 308 774 325 774L397 774C414 774 427 787 427 804Z"/>
<glyph unicode="&#xd7;" horiz-adv-x="528" d="M336 264L408 337C414 343 417 350 417 358C417 366 414 374 408 380L379 409C373 415 366 417 358 417C350 417 342 415 336 409L264 337L192 409C186 415 178 417 170 417C162 417 155 415 149 409L120 380C114 374 111 366 111 358C111 350 114 343 120 337L192 264L120 191C114 185 111 178 111 170C111 162 114 154 120 148L149 119C155 113 162 111 170 111C178 111 186 113 192 119L264 191L336 119C342 113 350 111 358 111C366 111 373 113 379 119L408 148C414 154 417 162 417 170C417 178 414 185 408 191Z"/>
<glyph unicode="&#xd8;" horiz-adv-x="528" d="M452 550C452 594 436 635 409 664L432 729C434 734 431 740 426 742L388 756C383 758 376 756 374 750L358 704C334 716 307 723 279 723L249 723C154 723 76 645 76 550L76 162C76 118 92 79 119 48L96 -16C94 -22 97 -27 102 -29L140 -43C146 -45 152 -42 154 -36L170 9C194 -4 221 -11 249 -11L279 -11C374 -11 452 67 452 162ZM178 208L178 550C178 589 209 621 249 621L279 621C296 621 310 615 323 607ZM350 505L350 162C350 123 319 91 279 91L249 91C232 91 218 97 205 107Z"/>
<glyph unicode="&#xd9;" horiz-adv-x="528" d="M275 -11C370 -11 447 67 447 162L447 682C447 699 434 712 417 712L376 712C359 712 346 699 346 682L346 162C346 123 314 91 275 91L253 91C214 91 182 123 182 162L182 682C182 699 169 712 152 712L111 712C94 712 81 699 81 682L81 162C81 67 158 -11 253 -11ZM232 762C237 757 246 754 253 754L295 754C314 754 327 767 327 782C327 789 325 796 319 803L237 905C231 912 222 916 213 916L152 916C133 916 121 903 121 888C121 880 124 871 131 864Z"/>
<glyph unicode="&#xda;" horiz-adv-x="528" d="M275 -11C370 -11 447 67 447 162L447 682C447 699 434 712 417 712L376 712C359 712 346 699 346 682L346 162C346 123 314 91 275 91L253 91C214 91 182 123 182 162L182 682C182 699 169 712 152 712L111 712C94 712 81 699 81 682L81 162C81 67 158 -11 253 -11ZM397 864C404 871 407 880 407 888C407 903 395 916 376 916L315 916C306 916 297 912 291 905L209 803C203 796 201 789 201 782C201 767 214 754 233 754L275 754C282 754 291 757 296 762Z"/>
<glyph unicode="&#xdb;" horiz-adv-x="528" d="M275 -11C370 -11 447 67 447 162L447 682C447 699 434 712 417 712L376 712C359 712 346 699 346 682L346 162C346 123 314 91 275 91L253 91C214 91 182 123 182 162L182 682C182 699 169 712 152 712L111 712C94 712 81 699 81 682L81 162C81 67 158 -11 253 -11ZM328 904C322 912 312 916 304 916L224 916C216 916 206 912 200 904L118 803C112 796 110 790 110 783C110 768 123 754 142 754L182 754C190 754 198 756 204 762L264 822L324 762C330 756 338 754 346 754L386 754C405 754 418 768 418 783C418 790 416 796 410 803Z"/>
<glyph unicode="&#xdc;" horiz-adv-x="528" d="M275 -11C370 -11 447 67 447 162L447 682C447 699 434 712 417 712L376 712C359 712 346 699 346 682L346 162C346 123 314 91 275 91L253 91C214 91 182 123 182 162L182 682C182 699 169 712 152 712L111 712C94 712 81 699 81 682L81 162C81 67 158 -11 253 -11ZM233 886C233 903 220 916 203 916L131 916C114 916 101 903 101 886L101 804C101 787 114 774 131 774L203 774C220 774 233 787 233 804ZM427 886C427 903 414 916 397 916L325 916C308 916 295 903 295 886L295 804C295 787 308 774 325 774L397 774C414 774 427 787 427 804Z"/>
<glyph unicode="&#xdd;" horiz-adv-x="528" d="M456 671C464 692 450 712 427 712L384 712C372 712 359 706 355 693L264 425L173 693C169 706 156 712 144 712L101 712C78 712 64 692 72 671L213 311L213 30C213 13 226 0 243 0L285 0C302 0 315 13 315 30L315 311ZM397 864C404 871 407 880 407 888C407 903 395 916 376 916L315 916C306 916 297 912 291 905L209 803C203 796 201 789 201 782C201 767 214 754 233 754L275 754C282 754 291 757 296 762Z"/>
<glyph unicode="&#xde;" horiz-adv-x="528" d="M455 407C455 503 378 581 282 581L262 581C236 581 212 575 191 565L191 683C191 699 177 712 160 712L119 712C103 712 89 699 89 683L89 31C89 13 103 0 119 0L160 0C177 0 191 13 191 31L191 148C212 138 236 132 262 132L282 132C378 132 455 210 455 305ZM353 305C353 266 322 234 282 234L262 234C223 234 191 266 191 305L191 407C191 446 223 479 262 479L282 479C322 479 353 446 353 407Z"/>
<glyph unicode="&#xdf;" horiz-adv-x="528" d="M293 0C388 0 466 78 466 173L466 234C466 284 444 330 410 362C438 393 455 433 455 479L455 550C455 645 378 723 282 723L262 723C166 723 89 645 89 550L89 30C89 13 102 0 119 0L161 0C178 0 191 13 191 30L191 550C191 589 223 621 262 621L282 621C322 621 353 589 353 550L353 479C353 440 322 407 282 407L261 407C244 407 231 394 231 377L231 335C231 318 244 305 261 305L293 305C332 305 364 274 364 234L364 173C364 133 332 102 293 102L251 102C234 102 221 89 221 72L221 30C221 13 234 0 251 0Z"/>
<glyph unicode="&#xe0;" horiz-adv-x="528" d="M488 72C488 89 474 102 458 102C452 102 447 107 447 112L447 356C447 458 364 519 275 519L264 519C168 519 91 442 91 346C91 328 104 316 121 316L163 316C180 316 193 328 193 346C193 386 225 417 264 417L275 417C320 417 345 396 345 361C345 324 245 309 228 304C161 284 81 253 81 153L81 132C81 50 148 -11 233 -11L253 -11C294 -11 336 4 371 28C388 11 411 0 437 0L458 0C475 0 488 13 488 30ZM345 163C345 120 303 91 253 91L234 91C198 91 183 118 183 137L183 153C183 174 198 197 228 210C266 226 299 228 345 251ZM242 558C247 553 256 550 263 550L305 550C324 550 337 563 337 578C337 585 335 592 329 599L247 701C241 708 232 712 223 712L162 712C143 712 131 699 131 684C131 676 134 667 141 660Z"/>
<glyph unicode="&#xe1;" horiz-adv-x="528" d="M488 72C488 89 474 102 458 102C452 102 447 107 447 112L447 356C447 458 364 519 275 519L264 519C168 519 91 442 91 346C91 328 104 316 121 316L163 316C180 316 193 328 193 346C193 386 225 417 264 417L275 417C320 417 345 396 345 361C345 324 245 309 228 304C161 284 81 253 81 153L81 132C81 50 148 -11 233 -11L253 -11C294 -11 336 4 371 28C388 11 411 0 437 0L458 0C475 0 488 13 488 30ZM345 163C345 120 303 91 253 91L234 91C198 91 183 118 183 137L183 153C183 174 198 197 228 210C266 226 299 228 345 251ZM387 660C394 667 397 676 397 684C397 699 385 712 366 712L305 712C296 712 287 708 281 701L199 599C193 592 191 585 191 578C191 563 204 550 223 550L265 550C272 550 281 553 286 558Z"/>
<glyph unicode="&#xe2;" horiz-adv-x="528" d="M488 72C488 89 474 102 458 102C452 102 447 107 447 112L447 356C447 458 364 519 275 519L264 519C168 519 91 442 91 346C91 328 104 316 121 316L163 316C180 316 193 328 193 346C193 386 225 417 264 417L275 417C320 417 345 396 345 361C345 324 245 309 228 304C161 284 81 253 81 153L81 132C81 50 148 -11 233 -11L253 -11C294 -11 336 4 371 28C388 11 411 0 437 0L458 0C475 0 488 13 488 30ZM345 163C345 120 303 91 253 91L234 91C198 91 183 118 183 137L183 153C183 174 198 197 228 210C266 226 299 228 345 251ZM338 700C332 708 322 712 314 712L234 712C226 712 216 708 210 700L128 599C122 592 120 586 120 579C120 564 133 550 152 550L192 550C200 550 208 552 214 558L274 618L334 558C340 552 348 550 356 550L396 550C415 550 428 564 428 579C428 586 426 592 420 599Z"/>
<glyph unicode="&#xe3;" horiz-adv-x="528" d="M488 72C488 89 474 102 458 102C452 102 447 107 447 112L447 356C447 458 364 519 275 519L264 519C168 519 91 442 91 346C91 328 104 316 121 316L163 316C180 316 193 328 193 346C193 386 225 417 264 417L275 417C320 417 345 396 345 361C345 324 245 309 228 304C161 284 81 253 81 153L81 132C81 50 148 -11 233 -11L253 -11C294 -11 336 4 371 28C388 11 411 0 437 0L458 0C475 0 488 13 488 30ZM345 163C345 120 303 91 253 91L234 91C198 91 183 118 183 137L183 153C183 174 198 197 228 210C266 226 299 228 345 251ZM431 635C431 653 418 662 402 662L375 662C358 662 349 652 344 635C343 632 340 629 333 629C326 629 315 632 299 643C273 661 244 669 217 669C163 669 117 636 117 575C117 557 130 548 146 548L173 548C190 548 199 558 204 575C205 578 208 581 215 581C222 581 233 578 249 567C275 549 304 545 331 545C385 545 431 574 431 635Z"/>
<glyph unicode="&#xe4;" horiz-adv-x="528" d="M488 72C488 89 474 102 458 102C452 102 447 107 447 112L447 356C447 458 364 519 275 519L264 519C168 519 91 442 91 346C91 328 104 316 121 316L163 316C180 316 193 328 193 346C193 386 225 417 264 417L275 417C320 417 345 396 345 361C345 324 245 309 228 304C161 284 81 253 81 153L81 132C81 50 148 -11 233 -11L253 -11C294 -11 336 4 371 28C388 11 411 0 437 0L458 0C475 0 488 13 488 30ZM345 163C345 120 303 91 253 91L234 91C198 91 183 118 183 137L183 153C183 174 198 197 228 210C266 226 299 228 345 251ZM233 682C233 699 220 712 203 712L131 712C114 712 101 699 101 682L101 600C101 583 114 570 131 570L203 570C220 570 233 583 233 600ZM427 682C427 699 414 712 397 712L325 712C308 712 295 699 295 682L295 600C295 583 308 570 325 570L397 570C414 570 427 583 427 600Z"/>
<glyph unicode="&#xe5;" horiz-adv-x="528" d="M488 72C488 89 474 102 458 102C452 102 447 107 447 112L447 356C447 458 364 519 275 519L264 519C168 519 91 442 91 346C91 328 104 316 121 316L163 316C180 316 193 328 193 346C193 386 225 417 264 417L275 417C320 417 345 396 345 361C345 324 245 309 228 304C161 284 81 253 81 153L81 132C81 50 148 -11 233 -11L253 -11C294 -11 336 4 371 28C388 11 411 0 437 0L458 0C475 0 488 13 488 30ZM345 163C345 120 303 91 253 91L234 91C198 91 183 118 183 137L183 153C183 174 198 197 228 210C266 226 299 228 345 251ZM377 641C377 697 331 738 275 738C219 738 173 697 173 641C173 585 219 544 275 544C331 544 377 585 377 641ZM295 641C295 629 286 626 275 626C264 626 255 629 255 641C255 653 264 656 275 656C286 656 295 653 295 641Z"/>
<glyph unicode="&#xe6;" horiz-adv-x="528" d="M498 132C498 149 485 162 468 162L426 162C409 162 396 149 396 132C396 109 378 91 355 91C333 91 315 109 315 132L315 203L468 203C485 203 498 217 498 233L498 376C498 455 434 519 355 519C321 519 289 507 264 486C239 507 207 519 173 519C94 519 30 455 30 376L30 349C30 333 43 320 60 320L102 320C119 320 132 333 132 349L132 376C132 399 150 417 173 417C195 417 213 399 213 376L213 356C213 330 202 320 174 308C96 275 30 262 30 153L30 132C30 29 87 -11 173 -11C207 -11 239 2 264 23C289 2 321 -11 355 -11C434 -11 498 54 498 132ZM396 305L315 305L315 376C315 399 333 417 355 417C378 417 396 399 396 376ZM213 217L213 132C213 109 195 91 173 91C143 91 132 101 132 132L132 153C132 179 143 190 171 201Z"/>
<glyph unicode="&#xe7;" horiz-adv-x="528" d="M447 162C447 179 433 193 417 193L375 193C358 193 345 179 345 162C345 123 314 91 275 91L253 91C214 91 183 123 183 162L183 346C183 385 214 417 253 417L275 417C314 417 345 385 345 346C345 328 358 316 375 316L417 316C433 316 447 328 447 346C447 442 370 519 275 519L253 519C158 519 81 442 81 346L81 162C81 83 134 16 206 -4L191 -51C189 -57 187 -64 187 -71C187 -85 194 -98 218 -98L261 -98C275 -98 286 -89 290 -77L313 -7C389 10 447 80 447 162Z"/>
<glyph unicode="&#xe8;" horiz-adv-x="528" d="M447 346C447 441 370 519 275 519L253 519C158 519 81 441 81 346L81 162C81 67 158 -11 253 -11L275 -11C354 -11 421 43 442 118C446 133 436 152 420 156L380 165C364 169 347 160 343 144C342 138 325 91 275 91L253 91C214 91 183 123 183 162L183 203L417 203C434 203 447 216 447 233ZM346 305L183 305L183 346C183 385 214 417 253 417L275 417C314 417 346 385 346 346ZM232 558C237 553 246 550 253 550L295 550C314 550 327 563 327 578C327 585 325 592 319 599L237 701C231 708 222 712 213 712L152 712C133 712 121 699 121 684C121 676 124 667 131 660Z"/>
<glyph unicode="&#xe9;" horiz-adv-x="528" d="M447 346C447 441 370 519 275 519L253 519C158 519 81 441 81 346L81 162C81 67 158 -11 253 -11L275 -11C354 -11 421 43 442 118C446 133 436 152 420 156L380 165C364 169 347 160 343 144C342 138 325 91 275 91L253 91C214 91 183 123 183 162L183 203L417 203C434 203 447 216 447 233ZM346 305L183 305L183 346C183 385 214 417 253 417L275 417C314 417 346 385 346 346ZM397 660C404 667 407 676 407 684C407 699 395 712 376 712L315 712C306 712 297 708 291 701L209 599C203 592 201 585 201 578C201 563 214 550 233 550L275 550C282 550 291 553 296 558Z"/>
<glyph unicode="&#xea;" horiz-adv-x="528" d="M447 346C447 441 370 519 275 519L253 519C158 519 81 441 81 346L81 162C81 67 158 -11 253 -11L275 -11C354 -11 421 43 442 118C446 133 436 152 420 156L380 165C364 169 347 160 343 144C342 138 325 91 275 91L253 91C214 91 183 123 183 162L183 203L417 203C434 203 447 216 447 233ZM346 305L183 305L183 346C183 385 214 417 253 417L275 417C314 417 346 385 346 346ZM328 700C322 708 312 712 304 712L224 712C216 712 206 708 200 700L118 599C112 592 110 586 110 579C110 564 123 550 142 550L182 550C190 550 198 552 204 558L264 618L324 558C330 552 338 550 346 550L386 550C405 550 418 564 418 579C418 586 416 592 410 599Z"/>
<glyph unicode="&#xeb;" horiz-adv-x="528" d="M447 346C447 441 370 519 275 519L253 519C158 519 81 441 81 346L81 162C81 67 158 -11 253 -11L275 -11C354 -11 421 43 442 118C446 133 436 152 420 156L380 165C364 169 347 160 343 144C342 138 325 91 275 91L253 91C214 91 183 123 183 162L183 203L417 203C434 203 447 216 447 233ZM346 305L183 305L183 346C183 385 214 417 253 417L275 417C314 417 346 385 346 346ZM233 682C233 699 220 712 203 712L131 712C114 712 101 699 101 682L101 600C101 583 114 570 131 570L203 570C220 570 233 583 233 600ZM427 682C427 699 414 712 397 712L325 712C308 712 295 699 295 682L295 600C295 583 308 570 325 570L397 570C414 570 427 583 427 600Z"/>
<glyph unicode="&#xec;" horiz-adv-x="528" d="M488 71C488 88 474 102 458 102L346 102L346 480C346 497 333 510 316 510L132 510C115 510 101 497 101 480L101 438C101 421 114 408 131 408L244 408L244 102L90 102C73 102 60 89 60 72L60 30C60 13 73 0 90 0L458 0C475 0 488 13 488 30ZM252 558C257 553 266 550 273 550L315 550C334 550 347 563 347 578C347 585 345 592 339 599L257 701C251 708 242 712 233 712L172 712C153 712 141 699 141 684C141 676 144 667 151 660Z"/>
<glyph unicode="&#xed;" horiz-adv-x="528" d="M488 71C488 88 474 102 458 102L346 102L346 480C346 497 333 510 316 510L132 510C115 510 101 497 101 480L101 438C101 421 114 408 131 408L244 408L244 102L90 102C73 102 60 89 60 72L60 30C60 13 73 0 90 0L458 0C475 0 488 13 488 30ZM397 660C404 667 407 676 407 684C407 699 395 712 376 712L315 712C306 712 297 708 291 701L209 599C203 592 201 585 201 578C201 563 214 550 233 550L275 550C282 550 291 553 296 558Z"/>
<glyph unicode="&#xee;" horiz-adv-x="528" d="M488 71C488 88 474 102 458 102L346 102L346 480C346 497 333 510 316 510L132 510C115 510 101 497 101 480L101 438C101 421 114 408 131 408L244 408L244 102L90 102C73 102 60 89 60 72L60 30C60 13 73 0 90 0L458 0C475 0 488 13 488 30ZM358 700C352 708 342 712 334 712L254 712C246 712 236 708 230 700L148 599C142 592 140 586 140 579C140 564 153 550 172 550L212 550C220 550 228 552 234 558L294 618L354 558C360 552 368 550 376 550L416 550C435 550 448 564 448 579C448 586 446 592 440 599Z"/>
<glyph unicode="&#xef;" horiz-adv-x="528" d="M488 71C488 88 474 102 458 102L346 102L346 480C346 497 333 510 316 510L132 510C115 510 101 497 101 480L101 438C101 421 114 408 131 408L244 408L244 102L90 102C73 102 60 89 60 72L60 30C60 13 73 0 90 0L458 0C475 0 488 13 488 30ZM263 682C263 699 250 712 233 712L161 712C144 712 131 699 131 682L131 600C131 583 144 570 161 570L233 570C250 570 263 583 263 600ZM457 682C457 699 444 712 427 712L355 712C338 712 325 699 325 682L325 600C325 583 338 570 355 570L427 570C444 570 457 583 457 600Z"/>
<glyph unicode="&#xf0;" horiz-adv-x="528" d="M345 162C345 123 314 91 275 91L253 91C214 91 183 123 183 162L183 316C183 355 214 387 253 387L275 387C314 387 345 355 345 316ZM247 712C200 712 161 693 133 665C121 653 120 635 132 623L162 593C174 581 193 581 205 593C214 602 229 610 247 610L267 610L240 592C227 583 224 563 233 550L255 517C264 502 283 498 297 508L345 540L345 539L345 473C323 483 300 489 275 489L253 489C158 489 81 411 81 316L81 162C81 67 158 -11 253 -11L275 -11C370 -11 447 67 447 162L447 539C447 561 443 582 436 601L467 622C482 631 485 649 476 664L452 698C443 712 425 716 410 706L373 681C345 700 311 712 275 712Z"/>
<glyph unicode="&#xf1;" horiz-adv-x="528" d="M421 0C439 0 451 13 451 30L451 346C451 441 373 519 278 519L258 519C229 519 202 513 178 500C173 506 164 510 156 510L115 510C98 510 84 497 84 480L84 30C84 13 97 0 114 0L156 0C173 0 186 13 186 30L186 346C186 385 219 417 258 417L278 417C318 417 349 385 349 346L349 30C349 13 362 0 379 0ZM421 637C421 655 408 664 392 664L365 664C348 664 339 654 334 637C333 634 330 631 323 631C316 631 305 634 289 645C263 663 234 671 207 671C153 671 107 638 107 577C107 559 120 550 136 550L163 550C180 550 189 560 194 577C195 580 198 583 205 583C212 583 223 580 239 569C265 551 294 547 321 547C375 547 421 576 421 637Z"/>
<glyph unicode="&#xf2;" horiz-adv-x="528" d="M447 346C447 441 370 519 275 519L253 519C158 519 81 441 81 346L81 162C81 67 158 -11 253 -11L275 -11C370 -11 447 67 447 162ZM345 162C345 123 314 91 275 91L253 91C214 91 183 123 183 162L183 346C183 385 214 417 253 417L275 417C314 417 345 385 345 346ZM232 558C237 553 246 550 253 550L295 550C314 550 327 563 327 578C327 585 325 592 319 599L237 701C231 708 222 712 213 712L152 712C133 712 121 699 121 684C121 676 124 667 131 660Z"/>
<glyph unicode="&#xf3;" horiz-adv-x="528" d="M447 346C447 441 370 519 275 519L253 519C158 519 81 441 81 346L81 162C81 67 158 -11 253 -11L275 -11C370 -11 447 67 447 162ZM345 162C345 123 314 91 275 91L253 91C214 91 183 123 183 162L183 346C183 385 214 417 253 417L275 417C314 417 345 385 345 346ZM397 660C404 667 407 676 407 684C407 699 395 712 376 712L315 712C306 712 297 708 291 701L209 599C203 592 201 585 201 578C201 563 214 550 233 550L275 550C282 550 291 553 296 558Z"/>
<glyph unicode="&#xf4;" horiz-adv-x="528" d="M447 346C447 441 370 519 275 519L253 519C158 519 81 441 81 346L81 162C81 67 158 -11 253 -11L275 -11C370 -11 447 67 447 162ZM345 162C345 123 314 91 275 91L253 91C214 91 183 123 183 162L183 346C183 385 214 417 253 417L275 417C314 417 345 385 345 346ZM328 700C322 708 312 712 304 712L224 712C216 712 206 708 200 700L118 599C112 592 110 586 110 579C110 564 123 550 142 550L182 550C190 550 198 552 204 558L264 618L324 558C330 552 338 550 346 550L386 550C405 550 418 564 418 579C418 586 416 592 410 599Z"/>
<glyph unicode="&#xf5;" horiz-adv-x="528" d="M447 346C447 441 370 519 275 519L253 519C158 519 81 441 81 346L81 162C81 67 158 -11 253 -11L275 -11C370 -11 447 67 447 162ZM345 162C345 123 314 91 275 91L253 91C214 91 183 123 183 162L183 346C183 385 214 417 253 417L275 417C314 417 345 385 345 346ZM421 637C421 655 408 664 392 664L365 664C348 664 339 654 334 637C333 634 330 631 323 631C316 631 305 634 289 645C263 663 234 671 207 671C153 671 107 638 107 577C107 559 120 550 136 550L163 550C180 550 189 560 194 577C195 580 198 583 205 583C212 583 223 580 239 569C265 551 294 547 321 547C375 547 421 576 421 637Z"/>
<glyph unicode="&#xf6;" horiz-adv-x="528" d="M447 346C447 441 370 519 275 519L253 519C158 519 81 441 81 346L81 162C81 67 158 -11 253 -11L275 -11C370 -11 447 67 447 162ZM345 162C345 123 314 91 275 91L253 91C214 91 183 123 183 162L183 346C183 385 214 417 253 417L275 417C314 417 345 385 345 346ZM233 682C233 699 220 712 203 712L131 712C114 712 101 699 101 682L101 600C101 583 114 570 131 570L203 570C220 570 233 583 233 600ZM427 682C427 699 414 712 397 712L325 712C308 712 295 699 295 682L295 600C295 583 308 570 325 570L397 570C414 570 427 583 427 600Z"/>
<glyph unicode="&#xf7;" horiz-adv-x="528" d="M427 286C427 302 414 316 397 316L131 316C114 316 101 302 101 286L101 244C101 227 114 214 131 214L397 214C414 214 427 227 427 244ZM335 142C335 159 320 173 304 173L224 173C208 173 193 159 193 142L193 62C193 44 208 31 224 31L304 31C320 31 335 44 335 62ZM335 468C335 485 320 499 304 499L224 499C208 499 193 485 193 468L193 388C193 370 208 357 224 357L304 357C320 357 335 370 335 388Z"/>
<glyph unicode="&#xf8;" horiz-adv-x="528" d="M448 347C448 402 420 452 380 484L397 531C399 537 396 542 391 544L353 558C347 560 342 557 340 552L325 512C309 516 292 519 275 519L253 519C158 519 80 442 80 347L80 162C80 107 108 58 148 26L131 -22C129 -27 131 -34 137 -36L175 -49C182 -51 186 -48 188 -43L203 -3C219 -8 236 -11 253 -11L275 -11C370 -11 448 67 448 162ZM346 162C346 123 314 91 275 91L253 91C249 91 243 92 238 93L340 373C344 366 346 356 346 347ZM188 135C184 144 182 153 182 162L182 347C182 386 214 417 253 417L275 417C279 417 285 416 290 415Z"/>
<glyph unicode="&#xf9;" horiz-adv-x="528" d="M414 0C431 0 444 13 444 30L444 480C444 496 429 510 413 510L372 510C355 510 342 496 342 480L342 162C342 123 309 91 270 91L250 91C210 91 179 123 179 162L179 480C179 497 166 510 149 510L107 510C90 510 77 497 77 480L77 162C77 66 155 -11 250 -11L270 -11C299 -11 326 -3 350 10C355 4 364 0 372 0ZM237 558C242 553 251 550 258 550L300 550C319 550 332 563 332 578C332 585 330 592 324 599L242 701C236 708 227 712 218 712L157 712C138 712 126 699 126 684C126 676 129 667 136 660Z"/>
<glyph unicode="&#xfa;" horiz-adv-x="528" d="M414 0C431 0 444 13 444 30L444 480C444 496 429 510 413 510L372 510C355 510 342 496 342 480L342 162C342 123 309 91 270 91L250 91C210 91 179 123 179 162L179 480C179 497 166 510 149 510L107 510C90 510 77 497 77 480L77 162C77 66 155 -11 250 -11L270 -11C299 -11 326 -3 350 10C355 4 364 0 372 0ZM382 660C389 667 392 676 392 684C392 699 380 712 361 712L300 712C291 712 282 708 276 701L194 599C188 592 186 585 186 578C186 563 199 550 218 550L260 550C267 550 276 553 281 558Z"/>
<glyph unicode="&#xfb;" horiz-adv-x="528" d="M414 0C431 0 444 13 444 30L444 480C444 496 429 510 413 510L372 510C355 510 342 496 342 480L342 162C342 123 309 91 270 91L250 91C210 91 179 123 179 162L179 480C179 497 166 510 149 510L107 510C90 510 77 497 77 480L77 162C77 66 155 -11 250 -11L270 -11C299 -11 326 -3 350 10C355 4 364 0 372 0ZM328 700C322 708 312 712 304 712L224 712C216 712 206 708 200 700L118 599C112 592 110 586 110 579C110 564 123 550 142 550L182 550C190 550 198 552 204 558L264 618L324 558C330 552 338 550 346 550L386 550C405 550 418 564 418 579C418 586 416 592 410 599Z"/>
<glyph unicode="&#xfc;" horiz-adv-x="528" d="M414 0C431 0 444 13 444 30L444 480C444 496 429 510 413 510L372 510C355 510 342 496 342 480L342 162C342 123 309 91 270 91L250 91C210 91 179 123 179 162L179 480C179 497 166 510 149 510L107 510C90 510 77 497 77 480L77 162C77 66 155 -11 250 -11L270 -11C299 -11 326 -3 350 10C355 4 364 0 372 0ZM233 682C233 699 220 712 203 712L131 712C114 712 101 699 101 682L101 600C101 583 114 570 131 570L203 570C220 570 233 583 233 600ZM427 682C427 699 414 712 397 712L325 712C308 712 295 699 295 682L295 600C295 583 308 570 325 570L397 570C414 570 427 583 427 600Z"/>
<glyph unicode="&#xfd;" horiz-adv-x="528" d="M447 471C452 492 439 510 418 510L377 510C363 510 351 501 348 488L267 180L189 489C186 501 173 510 159 510L117 510C96 510 82 492 88 470L220 34C213 12 208 -7 203 -20C189 -58 169 -61 135 -61L90 -61C73 -61 60 -74 60 -91L60 -133C60 -150 73 -163 90 -163L111 -163C189 -163 269 -156 302 -45C330 51 447 471 447 471ZM397 660C404 667 407 676 407 684C407 699 395 712 376 712L315 712C306 712 297 708 291 701L209 599C203 592 201 585 201 578C201 563 214 550 233 550L275 550C282 550 291 553 296 558Z"/>
<glyph unicode="&#xfe;" horiz-adv-x="528" d="M455 346C455 441 378 519 282 519L262 519C236 519 212 514 191 504L191 683C191 699 177 712 160 712L119 712C103 712 89 699 89 683L89 -173C89 -190 103 -204 119 -204L160 -204C177 -204 191 -190 191 -173L191 5C212 -5 236 -11 262 -11L282 -11C378 -11 455 66 455 162ZM353 162C353 123 322 91 282 91L262 91C223 91 191 123 191 162L191 346C191 385 223 417 262 417L282 417C322 417 353 385 353 346Z"/>
<glyph unicode="&#xff;" horiz-adv-x="528" d="M447 471C452 492 439 510 418 510L377 510C363 510 351 501 348 488L267 180L189 489C186 501 173 510 159 510L117 510C96 510 82 492 88 470L220 34C213 12 208 -7 203 -20C189 -58 169 -61 135 -61L90 -61C73 -61 60 -74 60 -91L60 -133C60 -150 73 -163 90 -163L111 -163C189 -163 269 -156 302 -45C330 51 447 471 447 471ZM233 682C233 699 220 712 203 712L131 712C114 712 101 699 101 682L101 600C101 583 114 570 131 570L203 570C220 570 233 583 233 600ZM427 682C427 699 414 712 397 712L325 712C308 712 295 699 295 682L295 600C295 583 308 570 325 570L397 570C414 570 427 583 427 600Z"/>
<glyph unicode="&#x100;" horiz-adv-x="528" d="M468 278C468 279 468 281 467 284L360 690C356 705 344 712 330 712L198 712C184 712 172 705 168 690L61 284C60 281 60 279 60 278L60 30C60 13 73 0 90 0L133 0C150 0 162 13 162 30L162 223L366 223L366 30C366 13 379 0 396 0L438 0C455 0 468 13 468 30ZM350 325L178 325L252 610L276 610ZM382 774C399 774 412 787 412 804L412 846C412 862 399 876 382 876L146 876C129 876 116 862 116 846L116 804C116 787 129 774 146 774Z"/>
<glyph unicode="&#x101;" horiz-adv-x="528" d="M488 72C488 89 474 102 458 102C452 102 447 107 447 112L447 356C447 458 364 519 275 519L264 519C168 519 91 442 91 346C91 328 104 316 121 316L163 316C180 316 193 328 193 346C193 386 225 417 264 417L275 417C320 417 345 396 345 361C345 324 245 309 228 304C161 284 81 253 81 153L81 132C81 50 148 -11 233 -11L253 -11C294 -11 336 4 371 28C388 11 411 0 437 0L458 0C475 0 488 13 488 30ZM345 163C345 120 303 91 253 91L234 91C198 91 183 118 183 137L183 153C183 174 198 197 228 210C266 226 299 228 345 251ZM392 580C409 580 422 593 422 610L422 652C422 668 409 682 392 682L156 682C139 682 126 668 126 652L126 610C126 593 139 580 156 580Z"/>
<glyph unicode="&#x102;" horiz-adv-x="528" d="M468 278C468 279 468 281 467 284L360 690C356 705 344 712 330 712L198 712C184 712 172 705 168 690L61 284C60 281 60 279 60 278L60 30C60 13 73 0 90 0L133 0C150 0 162 13 162 30L162 223L366 223L366 30C366 13 379 0 396 0L438 0C455 0 468 13 468 30ZM350 325L178 325L252 610L276 610ZM122 886C122 814 180 754 254 754L274 754C348 754 406 814 406 886C406 903 393 916 376 916L335 916C318 916 304 903 304 886C304 868 291 856 274 856L254 856C237 856 224 868 224 886C224 903 210 916 193 916L152 916C135 916 122 903 122 886Z"/>
<glyph unicode="&#x103;" horiz-adv-x="528" d="M488 72C488 89 474 102 458 102C452 102 447 107 447 112L447 356C447 458 364 519 275 519L264 519C168 519 91 442 91 346C91 328 104 316 121 316L163 316C180 316 193 328 193 346C193 386 225 417 264 417L275 417C320 417 345 396 345 361C345 324 245 309 228 304C161 284 81 253 81 153L81 132C81 50 148 -11 233 -11L253 -11C294 -11 336 4 371 28C388 11 411 0 437 0L458 0C475 0 488 13 488 30ZM345 163C345 120 303 91 253 91L234 91C198 91 183 118 183 137L183 153C183 174 198 197 228 210C266 226 299 228 345 251ZM127 682C127 610 185 550 259 550L279 550C353 550 411 610 411 682C411 699 398 712 381 712L340 712C323 712 309 699 309 682C309 664 296 652 279 652L259 652C242 652 229 664 229 682C229 699 215 712 198 712L157 712C140 712 127 699 127 682Z"/>
<glyph unicode="&#x104;" horiz-adv-x="528" d="M447 0C456 6 468 14 468 30L468 278C468 279 468 281 467 284L360 690C356 705 344 712 330 712L198 712C184 712 172 705 168 690L61 284C60 281 60 279 60 278L60 30C60 13 73 0 90 0L133 0C150 0 162 13 162 30L162 223L366 223L366 44C330 12 295 -18 295 -75C295 -135 335 -178 412 -178L434 -178C451 -178 463 -163 463 -146L463 -117C463 -100 451 -88 434 -88L414 -88C405 -88 395 -83 395 -71C395 -49 415 -22 447 0ZM350 325L178 325L252 610L276 610Z"/>
<glyph unicode="&#x105;" horiz-adv-x="528" d="M455 -178C472 -178 485 -165 485 -148L485 -117C485 -98 472 -88 455 -88L436 -88C427 -88 417 -83 417 -71C417 -48 438 -19 470 2C481 9 488 17 488 30L488 72C488 89 474 102 458 102C452 102 447 107 447 112L447 356C447 458 364 519 275 519L264 519C168 519 91 442 91 346C91 328 104 316 121 316L163 316C180 316 193 328 193 346C193 386 225 417 264 417L275 417C320 417 345 396 345 361C345 324 245 309 228 304C161 284 81 253 81 153L81 132C81 50 148 -11 233 -11L253 -11C293 -11 335 3 370 27C335 -6 317 -33 317 -75C317 -135 357 -178 434 -178ZM345 163C345 120 303 91 253 91L234 91C198 91 183 118 183 137L183 153C183 174 198 197 228 210C266 226 299 228 345 251Z"/>
<glyph unicode="&#x106;" horiz-adv-x="528" d="M284 -11C380 -11 458 66 458 162L458 194C458 211 445 224 428 224L386 224C369 224 356 211 356 194L356 162C356 123 324 91 284 91L253 91C214 91 182 123 182 162L182 550C182 589 214 621 253 621L284 621C324 621 356 589 356 550L356 529C356 512 369 499 386 499L428 499C445 499 458 512 458 529L458 550C458 645 380 723 284 723L253 723C158 723 80 645 80 550L80 162C80 66 158 -11 253 -11ZM417 864C424 871 427 880 427 888C427 903 415 916 396 916L335 916C326 916 317 912 311 905L229 803C223 796 221 789 221 782C221 767 234 754 253 754L295 754C302 754 311 757 316 762Z"/>
<glyph unicode="&#x107;" horiz-adv-x="528" d="M447 162C447 179 433 193 417 193L375 193C358 193 345 179 345 162C345 123 314 91 275 91L253 91C214 91 183 123 183 162L183 346C183 385 214 417 253 417L275 417C314 417 345 385 345 346C345 328 358 316 375 316L417 316C433 316 447 328 447 346C447 442 370 519 275 519L253 519C158 519 81 442 81 346L81 162C81 67 158 -11 253 -11L275 -11C370 -11 447 67 447 162ZM407 660C414 667 417 676 417 684C417 699 405 712 386 712L325 712C316 712 307 708 301 701L219 599C213 592 211 585 211 578C211 563 224 550 243 550L285 550C292 550 301 553 306 558Z"/>
<glyph unicode="&#x108;" horiz-adv-x="528" d="M284 -11C380 -11 458 66 458 162L458 194C458 211 445 224 428 224L386 224C369 224 356 211 356 194L356 162C356 123 324 91 284 91L253 91C214 91 182 123 182 162L182 550C182 589 214 621 253 621L284 621C324 621 356 589 356 550L356 529C356 512 369 499 386 499L428 499C445 499 458 512 458 529L458 550C458 645 380 723 284 723L253 723C158 723 80 645 80 550L80 162C80 66 158 -11 253 -11ZM328 904C322 912 312 916 304 916L224 916C216 916 206 912 200 904L118 803C112 796 110 790 110 783C110 768 123 754 142 754L182 754C190 754 198 756 204 762L264 822L324 762C330 756 338 754 346 754L386 754C405 754 418 768 418 783C418 790 416 796 410 803Z"/>
<glyph unicode="&#x109;" horiz-adv-x="528" d="M447 162C447 179 433 193 417 193L375 193C358 193 345 179 345 162C345 123 314 91 275 91L253 91C214 91 183 123 183 162L183 346C183 385 214 417 253 417L275 417C314 417 345 385 345 346C345 328 358 316 375 316L417 316C433 316 447 328 447 346C447 442 370 519 275 519L253 519C158 519 81 442 81 346L81 162C81 67 158 -11 253 -11L275 -11C370 -11 447 67 447 162ZM328 700C322 708 312 712 304 712L224 712C216 712 206 708 200 700L118 599C112 592 110 586 110 579C110 564 123 550 142 550L182 550C190 550 198 552 204 558L264 618L324 558C330 552 338 550 346 550L386 550C405 550 418 564 418 579C418 586 416 592 410 599Z"/>
<glyph unicode="&#x10a;" horiz-adv-x="528" d="M284 -11C380 -11 458 66 458 162L458 194C458 211 445 224 428 224L386 224C369 224 356 211 356 194L356 162C356 123 324 91 284 91L253 91C214 91 182 123 182 162L182 550C182 589 214 621 253 621L284 621C324 621 356 589 356 550L356 529C356 512 369 499 386 499L428 499C445 499 458 512 458 529L458 550C458 645 380 723 284 723L253 723C158 723 80 645 80 550L80 162C80 66 158 -11 253 -11ZM305 774C322 774 335 787 335 804L335 886C335 903 322 916 305 916L223 916C206 916 193 903 193 886L193 804C193 787 206 774 223 774Z"/>
<glyph unicode="&#x10b;" horiz-adv-x="528" d="M447 162C447 179 433 193 417 193L375 193C358 193 345 179 345 162C345 123 314 91 275 91L253 91C214 91 183 123 183 162L183 346C183 385 214 417 253 417L275 417C314 417 345 385 345 346C345 328 358 316 375 316L417 316C433 316 447 328 447 346C447 442 370 519 275 519L253 519C158 519 81 442 81 346L81 162C81 67 158 -11 253 -11L275 -11C370 -11 447 67 447 162ZM335 682C335 699 322 712 305 712L224 712C207 712 193 699 193 682L193 600C193 583 207 570 224 570L305 570C322 570 335 583 335 600Z"/>
<glyph unicode="&#x10c;" horiz-adv-x="528" d="M284 -11C380 -11 458 66 458 162L458 194C458 211 445 224 428 224L386 224C369 224 356 211 356 194L356 162C356 123 324 91 284 91L253 91C214 91 182 123 182 162L182 550C182 589 214 621 253 621L284 621C324 621 356 589 356 550L356 529C356 512 369 499 386 499L428 499C445 499 458 512 458 529L458 550C458 645 380 723 284 723L253 723C158 723 80 645 80 550L80 162C80 66 158 -11 253 -11ZM410 867C416 874 418 880 418 887C418 902 405 916 386 916L346 916C338 916 330 914 324 908L264 848L204 908C198 914 190 916 182 916L142 916C123 916 110 902 110 887C110 880 112 874 118 867L200 766C206 758 216 754 224 754L304 754C312 754 322 758 328 766Z"/>
<glyph unicode="&#x10d;" horiz-adv-x="528" d="M447 162C447 179 433 193 417 193L375 193C358 193 345 179 345 162C345 123 314 91 275 91L253 91C214 91 183 123 183 162L183 346C183 385 214 417 253 417L275 417C314 417 345 385 345 346C345 328 358 316 375 316L417 316C433 316 447 328 447 346C447 442 370 519 275 519L253 519C158 519 81 442 81 346L81 162C81 67 158 -11 253 -11L275 -11C370 -11 447 67 447 162ZM410 663C416 670 418 676 418 683C418 698 405 712 386 712L346 712C338 712 330 710 324 704L264 644L204 704C198 710 190 712 182 712L142 712C123 712 110 698 110 683C110 676 112 670 118 663L200 562C206 554 216 550 224 550L304 550C312 550 322 554 328 562Z"/>
<glyph unicode="&#x10e;" horiz-adv-x="528" d="M455 540C455 636 378 712 282 712L119 712C102 712 89 699 89 682L89 30C89 13 102 0 119 0L282 0C378 0 455 78 455 173ZM353 173C353 133 322 102 282 102L191 102L191 610L282 610C322 610 353 579 353 540ZM400 867C406 874 408 880 408 887C408 902 395 916 376 916L336 916C328 916 320 914 314 908L254 848L194 908C188 914 180 916 172 916L132 916C113 916 100 902 100 887C100 880 102 874 108 867L190 766C196 758 206 754 214 754L294 754C302 754 312 758 318 766Z"/>
<glyph unicode="&#x10f;" horiz-adv-x="528" d="M439 682C439 699 426 712 409 712L367 712C350 712 337 699 337 682L337 504C316 514 292 519 266 519L246 519C150 519 73 442 73 346L73 162C73 68 150 -11 246 -11L266 -11C295 -11 322 -3 346 10C351 4 359 0 368 0L409 0C426 0 439 13 439 30ZM337 162C337 123 305 91 266 91L246 91C206 91 175 123 175 162L175 346C175 385 206 417 246 417L266 417C305 417 337 385 337 346ZM478 626C478 611 490 602 504 602C501 593 496 591 488 584C474 572 479 556 485 550L503 530C506 527 511 524 518 524C523 524 529 525 536 530C558 545 580 578 580 620L580 688C580 703 571 712 556 712L502 712C487 712 478 703 478 688Z"/>
<glyph unicode="&#x110;" horiz-adv-x="528" d="M455 539C455 635 378 712 282 712L119 712C102 712 89 699 89 682L89 407L48 407C31 407 17 394 17 377L17 335C17 319 32 305 48 305L89 305L89 30C89 13 102 0 119 0L282 0C378 0 455 78 455 173ZM353 173C353 133 322 102 282 102L191 102L191 305L272 305C289 305 302 320 302 336L302 376C302 394 289 407 272 407L191 407L191 610L282 610C322 610 353 578 353 539Z"/>
<glyph unicode="&#x111;" horiz-adv-x="528" d="M511 622C511 639 498 652 481 652L439 652L439 682C439 699 426 712 409 712L367 712C350 712 337 699 337 682L337 652L276 652C259 652 246 638 246 621L246 581C246 564 259 550 276 550L337 550L337 504C316 514 292 519 266 519L246 519C150 519 73 442 73 347L73 163C73 67 150 -11 246 -11L266 -11C295 -11 322 -3 346 10C351 4 359 0 368 0L409 0C426 0 439 13 439 30L439 550L481 550C498 550 511 564 511 581ZM337 163C337 124 305 91 266 91L246 91C206 91 175 124 175 163L175 347C175 386 206 418 246 418L266 418C305 418 337 386 337 347Z"/>
<glyph unicode="&#x112;" horiz-adv-x="528" d="M428 0C445 0 458 13 458 30L458 72C458 89 445 102 428 102L193 102L193 305L406 305C423 305 437 318 437 335L437 377C437 394 423 407 406 407L193 407L193 610L427 610C444 610 458 624 458 640L458 682C458 699 444 712 427 712L121 712C104 712 91 699 91 683L91 30C91 13 104 0 121 0ZM392 774C409 774 422 787 422 804L422 846C422 862 409 876 392 876L156 876C139 876 126 862 126 846L126 804C126 787 139 774 156 774Z"/>
<glyph unicode="&#x113;" horiz-adv-x="528" d="M447 346C447 441 370 519 275 519L253 519C158 519 81 441 81 346L81 162C81 67 158 -11 253 -11L275 -11C354 -11 421 43 442 118C446 133 436 152 420 156L380 165C364 169 347 160 343 144C342 138 325 91 275 91L253 91C214 91 183 123 183 162L183 203L417 203C434 203 447 216 447 233ZM346 305L183 305L183 346C183 385 214 417 253 417L275 417C314 417 346 385 346 346ZM382 580C399 580 412 593 412 610L412 652C412 668 399 682 382 682L146 682C129 682 116 668 116 652L116 610C116 593 129 580 146 580Z"/>
<glyph unicode="&#x114;" horiz-adv-x="528" d="M428 0C445 0 458 13 458 30L458 72C458 89 445 102 428 102L193 102L193 305L406 305C423 305 437 318 437 335L437 377C437 394 423 407 406 407L193 407L193 610L427 610C444 610 458 624 458 640L458 682C458 699 444 712 427 712L121 712C104 712 91 699 91 683L91 30C91 13 104 0 121 0ZM132 886C132 814 190 754 264 754L284 754C358 754 416 814 416 886C416 903 403 916 386 916L345 916C328 916 314 903 314 886C314 868 301 856 284 856L264 856C247 856 234 868 234 886C234 903 220 916 203 916L162 916C145 916 132 903 132 886Z"/>
<glyph unicode="&#x115;" horiz-adv-x="528" d="M447 346C447 441 370 519 275 519L253 519C158 519 81 441 81 346L81 162C81 67 158 -11 253 -11L275 -11C354 -11 421 43 442 118C446 133 436 152 420 156L380 165C364 169 347 160 343 144C342 138 325 91 275 91L253 91C214 91 183 123 183 162L183 203L417 203C434 203 447 216 447 233ZM346 305L183 305L183 346C183 385 214 417 253 417L275 417C314 417 346 385 346 346ZM122 682C122 610 180 550 254 550L274 550C348 550 406 610 406 682C406 699 393 712 376 712L335 712C318 712 304 699 304 682C304 664 291 652 274 652L254 652C237 652 224 664 224 682C224 699 210 712 193 712L152 712C135 712 122 699 122 682Z"/>
<glyph unicode="&#x116;" horiz-adv-x="528" d="M428 0C445 0 458 13 458 30L458 72C458 89 445 102 428 102L193 102L193 305L406 305C423 305 437 318 437 335L437 377C437 394 423 407 406 407L193 407L193 610L427 610C444 610 458 624 458 640L458 682C458 699 444 712 427 712L121 712C104 712 91 699 91 683L91 30C91 13 104 0 121 0ZM320 774C337 774 350 787 350 804L350 886C350 903 337 916 320 916L238 916C221 916 208 903 208 886L208 804C208 787 221 774 238 774Z"/>
<glyph unicode="&#x117;" horiz-adv-x="528" d="M447 346C447 441 370 519 275 519L253 519C158 519 81 441 81 346L81 162C81 67 158 -11 253 -11L275 -11C354 -11 421 43 442 118C446 133 436 152 420 156L380 165C364 169 347 160 343 144C342 138 325 91 275 91L253 91C214 91 183 123 183 162L183 203L417 203C434 203 447 216 447 233ZM346 305L183 305L183 346C183 385 214 417 253 417L275 417C314 417 346 385 346 346ZM335 682C335 699 322 712 305 712L224 712C207 712 193 699 193 682L193 600C193 583 207 570 224 570L305 570C322 570 335 583 335 600Z"/>
</font>
</defs>
</svg>
